<?xml version="1.0" encoding="UTF-8" standalone="no"?>
<svg
   width="166.18938mm"
   height="132.81973mm"
   viewBox="0 0 166.18938 132.81973"
   version="1.1"
   id="svg947"
   inkscape:version="1.2.2 (732a01da63, 2022-12-09)"
   sodipodi:docname="calender.svg"
   xmlns:inkscape="http://www.inkscape.org/namespaces/inkscape"
   xmlns:sodipodi="http://sodipodi.sourceforge.net/DTD/sodipodi-0.dtd"
   xmlns="http://www.w3.org/2000/svg"
   xmlns:svg="http://www.w3.org/2000/svg"
   xmlns:rdf="http://www.w3.org/1999/02/22-rdf-syntax-ns#"
   xmlns:cc="http://creativecommons.org/ns#"
   xmlns:dc="http://purl.org/dc/elements/1.1/">
  <defs
     id="defs941">
    <inkscape:path-effect
       effect="perspective-envelope"
       up_left_point="-1.8531398,14.049654"
       up_right_point="177.59229,14.049654"
       down_left_point="21.590494,56.500113"
       down_right_point="153.88216,56.500113"
       id="path-effect931"
       is_visible="true"
       lpeversion="1"
       deform_type="perspective"
       horizontal_mirror="false"
       vertical_mirror="false"
       overflow_perspective="false" />
    <inkscape:path-effect
       overflow_perspective="false"
       vertical_mirror="false"
       horizontal_mirror="false"
       deform_type="perspective"
       lpeversion="1"
       is_visible="true"
       id="path-effect919"
       down_right_point="153.88216,63.908446"
       down_left_point="21.590494,63.908446"
       up_right_point="177.59229,21.457987"
       up_left_point="-1.8531398,21.457987"
       effect="perspective-envelope" />
    <inkscape:path-effect
       overflow_perspective="false"
       vertical_mirror="false"
       horizontal_mirror="false"
       deform_type="perspective"
       lpeversion="1"
       is_visible="true"
       id="path-effect895"
       down_right_point="153.88216,63.908446"
       down_left_point="21.590494,63.908446"
       up_right_point="177.59229,21.457987"
       up_left_point="-1.8531398,21.457987"
       effect="perspective-envelope" />
    <inkscape:path-effect
       overflow_perspective="false"
       vertical_mirror="false"
       horizontal_mirror="false"
       deform_type="perspective"
       lpeversion="1"
       is_visible="true"
       id="path-effect857"
       down_right_point="153.88216,56.500113"
       down_left_point="21.590494,56.500113"
       up_right_point="177.59229,14.049654"
       up_left_point="-1.8531398,14.049654"
       effect="perspective-envelope" />
    <inkscape:path-effect
       overflow_perspective="false"
       vertical_mirror="false"
       horizontal_mirror="false"
       deform_type="perspective"
       lpeversion="1"
       is_visible="true"
       id="path-effect1814"
       down_right_point="153.88216,63.908446"
       down_left_point="21.590494,63.908446"
       up_right_point="177.59229,21.457987"
       up_left_point="-1.8531398,21.457987"
       effect="perspective-envelope" />
    <inkscape:path-effect
       overflow_perspective="false"
       vertical_mirror="false"
       horizontal_mirror="false"
       deform_type="perspective"
       lpeversion="1"
       is_visible="true"
       id="path-effect1729"
       down_right_point="320.7304,63.908446"
       down_left_point="188.43873,63.908446"
       up_right_point="344.44053,21.457987"
       up_left_point="164.9951,21.457987"
       effect="perspective-envelope" />
    <inkscape:path-effect
       overflow_perspective="false"
       vertical_mirror="false"
       horizontal_mirror="false"
       deform_type="perspective"
       lpeversion="1"
       is_visible="true"
       id="path-effect1715"
       down_right_point="153.88216,63.908446"
       down_left_point="21.590494,63.908446"
       up_right_point="177.59229,21.457987"
       up_left_point="-1.8531398,21.457987"
       effect="perspective-envelope" />
    <inkscape:path-effect
       overflow_perspective="false"
       vertical_mirror="false"
       horizontal_mirror="false"
       deform_type="perspective"
       lpeversion="1"
       is_visible="true"
       id="path-effect1704"
       down_right_point="153.88216,63.908446"
       down_left_point="21.590494,63.908446"
       up_right_point="177.59229,21.457987"
       up_left_point="-1.8531398,21.457987"
       effect="perspective-envelope" />
    <inkscape:path-effect
       down_right_point="134.90585,-93.801704"
       down_left_point="83.823863,-76.824164"
       up_right_point="134.90585,-102.00273"
       up_left_point="83.823863,-102.00273"
       effect="perspective-envelope"
       id="path-effect1689"
       is_visible="true"
       lpeversion="1"
       deform_type="perspective"
       horizontal_mirror="false"
       vertical_mirror="false"
       overflow_perspective="false" />
    <inkscape:path-effect
       effect="perspective-envelope"
       up_left_point="-1.8531398,21.457987"
       up_right_point="177.59229,21.457987"
       down_left_point="21.590494,63.908446"
       down_right_point="153.88216,63.908446"
       id="path-effect1662"
       is_visible="true"
       lpeversion="1"
       deform_type="perspective"
       horizontal_mirror="false"
       vertical_mirror="false"
       overflow_perspective="false" />
    <rect
       x="-47.625"
       y="56.69643"
       width="146.65475"
       height="113.39286"
       id="rect2108" />
    <filter
       inkscape:collect="always"
       style="color-interpolation-filters:sRGB"
       id="filter1786"
       x="-5.5880879e-06"
       width="1.0000112"
       y="-6.9920396e-06"
       height="1.000014">
      <feGaussianBlur
         inkscape:collect="always"
         stdDeviation="0.00038695037"
         id="feGaussianBlur1788" />
    </filter>
  </defs>
  <sodipodi:namedview
     inkscape:snap-smooth-nodes="true"
     inkscape:snap-intersection-paths="true"
     inkscape:object-paths="true"
     id="base"
     pagecolor="#ffffff"
     bordercolor="#666666"
     borderopacity="1.0"
     inkscape:pageopacity="0.0"
     inkscape:pageshadow="2"
     inkscape:zoom="0.70710678"
     inkscape:cx="321.02648"
     inkscape:cy="465.98337"
     inkscape:document-units="px"
     inkscape:current-layer="layer1"
     inkscape:document-rotation="0"
     showgrid="false"
     showborder="false"
     inkscape:window-width="1920"
     inkscape:window-height="1001"
     inkscape:window-x="-9"
     inkscape:window-y="-9"
     inkscape:window-maximized="1"
     inkscape:object-nodes="true"
     inkscape:snap-text-baseline="true"
     inkscape:showpageshadow="2"
     inkscape:pagecheckerboard="0"
     inkscape:deskcolor="#d1d1d1" />
  <metadata
     id="metadata944">
    <rdf:RDF>
      <cc:Work
         rdf:about="">
        <dc:format>image/svg+xml</dc:format>
        <dc:type
           rdf:resource="http://purl.org/dc/dcmitype/StillImage" />
      </cc:Work>
    </rdf:RDF>
  </metadata>
  <g
     inkscape:label="Layer 1"
     inkscape:groupmode="layer"
     id="layer1"
     style="opacity:1;filter:url(#filter1786)"
     transform="translate(-4.7491814,2.8977425)">
    <text
       xml:space="preserve"
       id="text2106"
       style="font-style:normal;font-weight:normal;font-size:10.5833px;line-height:1.25;font-family:sans-serif;white-space:pre;shape-inside:url(#rect2108);fill:#000000;fill-opacity:1;stroke:none" />
    <rect
       ry="16.524038"
       y="-2.3696783"
       x="21.590599"
       height="132.29167"
       width="132.29167"
       id="rect2889"
       style="opacity:1;fill:#3d7cff;fill-opacity:1;stroke-width:1.31378"
       rx="16.524038" />
    <path
       d="m 35.721751,21.457987 c -20.816413,0 -32.0164657,10.064894 -26.0073208,20.945928 l 11.8760638,21.504531 132.291666,0 12.01107,-21.504531 C 171.97068,31.522881 160.8345,21.457987 140.01809,21.457987 Z"
       style="opacity:1;fill:#b3b3b3;stroke-width:1"
       id="path1713"
       inkscape:original-d="m 49.291645,-2.3696783 c -15.346381,0 -27.701151,12.3547716 -27.701151,27.7011523 V 63.908446 H 153.88216 V 25.331474 c 0,-15.3463807 -12.35426,-27.7011523 -27.70064,-27.7011523 z"
       inkscape:path-effect="#path-effect1715" />
    <rect
       style="opacity:1;fill:#cccccc;fill-opacity:1;stroke-width:1"
       id="rect1820"
       width="133.61238"
       height="66.80619"
       x="21.590494"
       y="-2.8977425"
       rx="16.524048"
       ry="16.524048" />
    <path
       sodipodi:nodetypes="ssccsss"
       d="m 23.929927,21.457987 c -25.5234514,0 -20.2246417,10.064894 -14.2154968,20.945928 L 21.590494,63.908446 H 153.88216 l 12.01107,-21.504531 c 6.07745,-10.881034 11.44013,-20.945928 -14.08331,-20.945928 z"
       style="opacity:1;fill:#808080;fill-opacity:1;stroke-width:1"
       id="path1812"
       inkscape:original-d="m 40.598417,-2.3696783 c -18.816528,0 -19.007923,12.3547716 -19.007923,27.7011523 V 63.908446 H 153.88216 V 25.331474 c 0,-15.3463807 -0.19089,-27.7011523 -19.00741,-27.7011523 z"
       inkscape:path-effect="#path-effect1814" />
    <path
       transform="scale(0.26458333)"
       d="m 90.443359,53.101562 c -3.064792,0 -6.008524,0.03761 -8.841797,0.113282 V 179.08984 c 0,12.75562 3.796581,24.58877 10.310547,34.45313 H 576.2832 c 6.51397,-9.86436 10.31055,-21.69751 10.31055,-34.45313 V 53.347656 c -4.02528,-0.163997 -8.29639,-0.246094 -12.82422,-0.246094 z"
       style="opacity:1;fill:#999999;fill-opacity:1;stroke-width:3.77953"
       id="path929" />
    <path
       id="rect1551"
       style="opacity:1;fill:#003dbb;fill-opacity:1;stroke-width:1"
       d="m 23.929927,21.457987 c -25.5234514,0 -20.2246417,10.064894 -14.2154968,20.945928 L 21.590494,63.908446 H 153.88216 l 12.01107,-21.504531 c 6.07745,-10.881034 11.44013,-20.945928 -14.08331,-20.945928 z"
       inkscape:path-effect="#path-effect1662"
       inkscape:original-d="m 40.598417,-2.3696783 c -18.816528,0 -19.007923,12.3547716 -19.007923,27.7011523 V 63.908446 H 153.88216 V 25.331474 c 0,-15.3463807 -0.19089,-27.7011523 -19.00741,-27.7011523 z"
       sodipodi:nodetypes="ssccsss" />
    <path
       id="path1824"
       style="opacity:1;fill:#808080;fill-opacity:1;stroke-width:1"
       d="m 75.725625,-0.2997233 a 4.9105081,4.9105081 0 0 0 -4.865338,4.9102945 4.9105081,4.9105081 0 0 0 4.910812,4.9108113 4.9105081,4.9105081 0 0 0 4.910293,-4.9108113 4.9105081,4.9105081 0 0 0 -4.910293,-4.9102945 4.9105081,4.9105081 0 0 0 -0.04547,0 z m 25.251685,0 a 4.9105081,4.9105081 0 0 0 -4.865333,4.9102945 4.9105081,4.9105081 0 0 0 4.910813,4.9108113 4.9105081,4.9105081 0 0 0 4.91029,-4.9108113 4.9105081,4.9105081 0 0 0 -4.91029,-4.9102945 4.9105081,4.9105081 0 0 0 -0.0455,0 z" />
    <path
       id="rect1833"
       style="opacity:1;fill:#246bff;fill-opacity:1;stroke-width:4.96547"
       d="m 81.601562,241.54297 406.563388,249.5 h 30.98349 c 34.599,0 62.45312,-27.85416 62.45312,-62.45313 V 241.54297 Z"
       transform="scale(0.26458333)"
       sodipodi:nodetypes="ccsscc" />
    <path
       transform="scale(0.26458333)"
       d="m 331.18555,235.10742 c -1.12871,2.13372 -2.23553,4.28167 -3.33399,6.43555 1.09846,-2.15388 2.20528,-4.30183 3.33399,-6.43555 z m -3.33399,6.43555 c -5.63955,11.05817 -10.88623,22.37906 -15.72851,33.96875 -5.69059,13.75225 -10.71729,27.97899 -15.08008,42.67969 -4.36276,14.70068 -7.87173,29.9698 -10.52735,45.80859 h 46.94727 c 2.46593,-16.69237 5.6427,-32.24595 9.53125,-46.66211 3.88859,-14.511 8.58309,-28.73775 14.08398,-42.67969 4.29159,-10.95095 9.10879,-21.9911 14.43946,-33.11523 z"
       style="font-weight:bold;font-size:58.9507px;line-height:1.25;font-family:Ebrima;-inkscape-font-specification:'Ebrima, Bold';fill:#f2f2f2;stroke-width:7.28398"
       id="path878" />
    <path
       d="m 55.3325,46.4323 7.6115,10.1565 h 32.4587 c -3.0759,2.44 -5.6139,4.5829 -7.71,6.4788 -0.3109,0.2849 -0.609,0.5654 -0.8984,0.8406 h 11.585 c 0.5829,-0.4025 1.1945,-0.8187 1.8407,-1.2501 3.24,-2.1735 7.501,-4.9314 13.2,-8.5201 l 5.775,-7.7057 z"
       style="font-weight:bold;font-size:58.9507px;line-height:1.25;font-family:Ebrima;-inkscape-font-specification:'Ebrima, Bold';fill:#cccccc;stroke-width:1.92722"
       id="path921" />
    <path
       id="path1029"
       style="font-weight:bold;font-size:58.9507px;line-height:1.25;font-family:Ebrima;-inkscape-font-specification:'Ebrima, Bold';fill:#f2f2f2;stroke-width:7.28398"
       d="m 331.18555,235.10742 c -1.12871,2.13372 -2.23553,4.28167 -3.33399,6.43555 1.09846,-2.15388 2.20528,-4.30183 3.33399,-6.43555 z m -3.33399,6.43555 c -5.63955,11.05817 -10.88623,22.37906 -15.72851,33.96875 -5.69059,13.75225 -10.71729,27.97899 -15.08008,42.67969 -4.36276,14.70068 -7.87173,29.9698 -10.52735,45.80859 h 46.94727 c 2.46593,-16.69237 5.6427,-32.24595 9.53125,-46.66211 3.88859,-14.511 8.58309,-28.73775 14.08398,-42.67969 4.29159,-10.95095 9.10879,-21.9911 14.43946,-33.11523 z"
       transform="scale(0.26458333)" />
    <path
       id="path1031"
       style="font-weight:bold;font-size:58.9507px;line-height:1.25;font-family:Ebrima;-inkscape-font-specification:'Ebrima, Bold';fill:#cccccc;stroke-width:1.92722"
       d="m 55.3325,46.4323 7.6115,10.1565 h 32.4587 c -3.0759,2.44 -5.6139,4.5829 -7.71,6.4788 -0.3109,0.2849 -0.609,0.5654 -0.8984,0.8406 h 11.585 c 0.5829,-0.4025 1.1945,-0.8187 1.8407,-1.2501 3.24,-2.1735 7.501,-4.9314 13.2,-8.5201 l 5.775,-7.7057 z" />
  </g>
</svg>
