<?xml version="1.0" encoding="UTF-8" standalone="no"?>
<svg
   xmlns:dc="http://purl.org/dc/elements/1.1/"
   xmlns:cc="http://creativecommons.org/ns#"
   xmlns:rdf="http://www.w3.org/1999/02/22-rdf-syntax-ns#"
   xmlns:svg="http://www.w3.org/2000/svg"
   xmlns="http://www.w3.org/2000/svg"
   xmlns:sodipodi="http://sodipodi.sourceforge.net/DTD/sodipodi-0.dtd"
   xmlns:inkscape="http://www.inkscape.org/namespaces/inkscape"
   width="210mm"
   height="297mm"
   viewBox="0 0 210 297"
   version="1.1"
   id="svg947"
   inkscape:version="1.0 (4035a4fb49, 2020-05-01)"
   sodipodi:docname="calender.svg">
  <defs
     id="defs941">
    <inkscape:path-effect
       effect="perspective-envelope"
       up_left_point="-1.8531398,14.049654"
       up_right_point="177.59229,14.049654"
       down_left_point="21.590494,56.500113"
       down_right_point="153.88216,56.500113"
       id="path-effect931"
       is_visible="true"
       lpeversion="1"
       deform_type="perspective"
       horizontal_mirror="false"
       vertical_mirror="false"
       overflow_perspective="false" />
    <inkscape:path-effect
       overflow_perspective="false"
       vertical_mirror="false"
       horizontal_mirror="false"
       deform_type="perspective"
       lpeversion="1"
       is_visible="true"
       id="path-effect919"
       down_right_point="153.88216,63.908446"
       down_left_point="21.590494,63.908446"
       up_right_point="177.59229,21.457987"
       up_left_point="-1.8531398,21.457987"
       effect="perspective-envelope" />
    <inkscape:path-effect
       overflow_perspective="false"
       vertical_mirror="false"
       horizontal_mirror="false"
       deform_type="perspective"
       lpeversion="1"
       is_visible="true"
       id="path-effect895"
       down_right_point="153.88216,63.908446"
       down_left_point="21.590494,63.908446"
       up_right_point="177.59229,21.457987"
       up_left_point="-1.8531398,21.457987"
       effect="perspective-envelope" />
    <inkscape:path-effect
       overflow_perspective="false"
       vertical_mirror="false"
       horizontal_mirror="false"
       deform_type="perspective"
       lpeversion="1"
       is_visible="true"
       id="path-effect857"
       down_right_point="153.88216,56.500113"
       down_left_point="21.590494,56.500113"
       up_right_point="177.59229,14.049654"
       up_left_point="-1.8531398,14.049654"
       effect="perspective-envelope" />
    <inkscape:path-effect
       overflow_perspective="false"
       vertical_mirror="false"
       horizontal_mirror="false"
       deform_type="perspective"
       lpeversion="1"
       is_visible="true"
       id="path-effect1814"
       down_right_point="153.88216,63.908446"
       down_left_point="21.590494,63.908446"
       up_right_point="177.59229,21.457987"
       up_left_point="-1.8531398,21.457987"
       effect="perspective-envelope" />
    <inkscape:path-effect
       overflow_perspective="false"
       vertical_mirror="false"
       horizontal_mirror="false"
       deform_type="perspective"
       lpeversion="1"
       is_visible="true"
       id="path-effect1729"
       down_right_point="320.7304,63.908446"
       down_left_point="188.43873,63.908446"
       up_right_point="344.44053,21.457987"
       up_left_point="164.9951,21.457987"
       effect="perspective-envelope" />
    <inkscape:path-effect
       overflow_perspective="false"
       vertical_mirror="false"
       horizontal_mirror="false"
       deform_type="perspective"
       lpeversion="1"
       is_visible="true"
       id="path-effect1715"
       down_right_point="153.88216,63.908446"
       down_left_point="21.590494,63.908446"
       up_right_point="177.59229,21.457987"
       up_left_point="-1.8531398,21.457987"
       effect="perspective-envelope" />
    <inkscape:path-effect
       overflow_perspective="false"
       vertical_mirror="false"
       horizontal_mirror="false"
       deform_type="perspective"
       lpeversion="1"
       is_visible="true"
       id="path-effect1704"
       down_right_point="153.88216,63.908446"
       down_left_point="21.590494,63.908446"
       up_right_point="177.59229,21.457987"
       up_left_point="-1.8531398,21.457987"
       effect="perspective-envelope" />
    <inkscape:path-effect
       down_right_point="134.90585,-93.801704"
       down_left_point="83.823863,-76.824164"
       up_right_point="134.90585,-102.00273"
       up_left_point="83.823863,-102.00273"
       effect="perspective-envelope"
       id="path-effect1689"
       is_visible="true"
       lpeversion="1"
       deform_type="perspective"
       horizontal_mirror="false"
       vertical_mirror="false"
       overflow_perspective="false" />
    <inkscape:path-effect
       effect="perspective-envelope"
       up_left_point="-1.8531398,21.457987"
       up_right_point="177.59229,21.457987"
       down_left_point="21.590494,63.908446"
       down_right_point="153.88216,63.908446"
       id="path-effect1662"
       is_visible="true"
       lpeversion="1"
       deform_type="perspective"
       horizontal_mirror="false"
       vertical_mirror="false"
       overflow_perspective="false" />
    <rect
       x="-47.625"
       y="56.696429"
       width="146.65476"
       height="113.39286"
       id="rect2108" />
    <filter
       inkscape:collect="always"
       style="color-interpolation-filters:sRGB"
       id="filter1786"
       x="-3.2414165e-06"
       width="1.0000065"
       y="-4.004234e-06"
       height="1.000008">
      <feGaussianBlur
         inkscape:collect="always"
         stdDeviation="0.00038695037"
         id="feGaussianBlur1788" />
    </filter>
  </defs>
  <sodipodi:namedview
     inkscape:snap-smooth-nodes="true"
     inkscape:snap-intersection-paths="true"
     inkscape:object-paths="true"
     id="base"
     pagecolor="#ffffff"
     bordercolor="#666666"
     borderopacity="1.0"
     inkscape:pageopacity="0.0"
     inkscape:pageshadow="2"
     inkscape:zoom="0.70710678"
     inkscape:cx="339.40291"
     inkscape:cy="227.70101"
     inkscape:document-units="px"
     inkscape:current-layer="layer1"
     inkscape:document-rotation="0"
     showgrid="false"
     showborder="false"
     inkscape:window-width="1366"
     inkscape:window-height="705"
     inkscape:window-x="-8"
     inkscape:window-y="-8"
     inkscape:window-maximized="1"
     inkscape:object-nodes="true"
     inkscape:snap-text-baseline="true" />
  <metadata
     id="metadata944">
    <rdf:RDF>
      <cc:Work
         rdf:about="">
        <dc:format>image/svg+xml</dc:format>
        <dc:type
           rdf:resource="http://purl.org/dc/dcmitype/StillImage" />
        <dc:title />
      </cc:Work>
    </rdf:RDF>
  </metadata>
  <g
     inkscape:label="Layer 1"
     inkscape:groupmode="layer"
     id="layer1"
     style="filter:url(#filter1786);opacity:1">
    <text
       xml:space="preserve"
       id="text2106"
       style="fill:black;fill-opacity:1;line-height:1.25;stroke:none;font-family:sans-serif;font-style:normal;font-weight:normal;font-size:10.58333336px;white-space:pre;shape-inside:url(#rect2108);" />
    <rect
       ry="16.524038"
       y="-2.3696783"
       x="21.590599"
       height="132.29167"
       width="132.29167"
       id="rect2889"
       style="opacity:1;fill:#3d7cff;fill-opacity:1;stroke-width:1.31378"
       rx="16.524038" />
    <path
       d="m 35.721751,21.457987 c -20.816413,0 -32.0164657,10.064894 -26.0073208,20.945928 l 11.8760638,21.504531 132.291666,0 12.01107,-21.504531 C 171.97068,31.522881 160.8345,21.457987 140.01809,21.457987 Z"
       style="opacity:1;fill:#b3b3b3;stroke-width:1"
       id="path1713"
       inkscape:original-d="m 49.291645,-2.3696783 c -15.346381,0 -27.701151,12.3547716 -27.701151,27.7011523 V 63.908446 H 153.88216 V 25.331474 c 0,-15.3463807 -12.35426,-27.7011523 -27.70064,-27.7011523 z"
       inkscape:path-effect="#path-effect1715" />
    <rect
       style="opacity:1;fill:#cccccc;fill-opacity:1;stroke-width:1"
       id="rect1820"
       width="133.61238"
       height="66.80619"
       x="21.590494"
       y="-2.8977425"
       rx="16.524048"
       ry="16.524048" />
    <path
       sodipodi:nodetypes="ssccsss"
       d="m 23.929927,21.457987 c -25.5234514,0 -20.2246417,10.064894 -14.2154968,20.945928 L 21.590494,63.908446 H 153.88216 l 12.01107,-21.504531 c 6.07745,-10.881034 11.44013,-20.945928 -14.08331,-20.945928 z"
       style="opacity:1;fill:#808080;fill-opacity:1;stroke-width:1"
       id="path1812"
       inkscape:original-d="m 40.598417,-2.3696783 c -18.816528,0 -19.007923,12.3547716 -19.007923,27.7011523 V 63.908446 H 153.88216 V 25.331474 c 0,-15.3463807 -0.19089,-27.7011523 -19.00741,-27.7011523 z"
       inkscape:path-effect="#path-effect1814" />
    <path
       transform="scale(0.26458333)"
       d="M 90.443359 53.101562 C 87.378567 53.101562 84.434835 53.139171 81.601562 53.214844 L 81.601562 179.08984 C 81.601562 191.84546 85.398143 203.67861 91.912109 213.54297 L 576.2832 213.54297 C 582.79717 203.67861 586.59375 191.84546 586.59375 179.08984 L 586.59375 53.347656 C 582.56847 53.183659 578.29736 53.101562 573.76953 53.101562 L 90.443359 53.101562 z "
       style="opacity:1;fill:#999999;fill-opacity:1;stroke-width:3.77953"
       id="path929" />
    <path
       id="rect1551"
       style="opacity:1;fill:#003dbb;fill-opacity:1;stroke-width:1"
       d="m 23.929927,21.457987 c -25.5234514,0 -20.2246417,10.064894 -14.2154968,20.945928 L 21.590494,63.908446 H 153.88216 l 12.01107,-21.504531 c 6.07745,-10.881034 11.44013,-20.945928 -14.08331,-20.945928 z"
       inkscape:path-effect="#path-effect1662"
       inkscape:original-d="m 40.598417,-2.3696783 c -18.816528,0 -19.007923,12.3547716 -19.007923,27.7011523 V 63.908446 H 153.88216 V 25.331474 c 0,-15.3463807 -0.19089,-27.7011523 -19.00741,-27.7011523 z"
       sodipodi:nodetypes="ssccsss" />
    <path
       id="path1824"
       style="opacity:1;fill:#808080;fill-opacity:1;stroke-width:1"
       d="m 75.725625,-0.2997233 a 4.9105081,4.9105081 0 0 0 -4.865338,4.9102945 4.9105081,4.9105081 0 0 0 4.910812,4.9108113 4.9105081,4.9105081 0 0 0 4.910293,-4.9108113 4.9105081,4.9105081 0 0 0 -4.910293,-4.9102945 4.9105081,4.9105081 0 0 0 -0.04547,0 z m 25.251685,0 a 4.9105081,4.9105081 0 0 0 -4.865333,4.9102945 4.9105081,4.9105081 0 0 0 4.910813,4.9108113 4.9105081,4.9105081 0 0 0 4.91029,-4.9108113 4.9105081,4.9105081 0 0 0 -4.91029,-4.9102945 4.9105081,4.9105081 0 0 0 -0.0455,0 z" />
    <path
       id="rect1833"
       style="opacity:1;fill:#246bff;fill-opacity:1;stroke-width:4.96547"
       d="m 81.601562,241.54297 406.563388,249.5 30.98349,0 c 34.599,0 62.45312,-27.85416 62.45312,-62.45313 V 241.54297 Z"
       transform="scale(0.26458333)"
       sodipodi:nodetypes="ccsscc" />
    <path
       transform="scale(0.26458333)"
       d="M 331.18555 235.10742 C 330.05684 237.24114 328.95002 239.38909 327.85156 241.54297 C 328.95002 239.38909 330.05684 237.24114 331.18555 235.10742 z M 327.85156 241.54297 C 322.21201 252.60114 316.96533 263.92203 312.12305 275.51172 C 306.43246 289.26397 301.40576 303.49071 297.04297 318.19141 C 292.68021 332.89209 289.17124 348.16121 286.51562 364 L 333.46289 364 C 335.92882 347.30763 339.10559 331.75405 342.99414 317.33789 C 346.88273 302.82689 351.57723 288.60014 357.07812 274.6582 C 361.36971 263.70725 366.18691 252.6671 371.51758 241.54297 L 327.85156 241.54297 z "
       style="font-weight:bold;font-size:58.9507px;line-height:1.25;font-family:Ebrima;-inkscape-font-specification:'Ebrima, Bold';stroke-width:7.28398;fill:#f2f2f2"
       id="path878" />
    <path
       d="M 55.3325 46.4323 L 62.944 56.5888 L 95.4027 56.5888 C 92.3268 59.0288 89.7888 61.1717 87.6927 63.0676 C 87.3818 63.3525 87.0837 63.633 86.7943 63.9082 L 98.3793 63.9082 C 98.9622 63.5057 99.5738 63.0895 100.22 62.6581 C 103.46 60.4846 107.721 57.7267 113.42 54.138 L 119.195 46.4323 Z"
       style="font-weight:bold;font-size:58.9507px;line-height:1.25;font-family:Ebrima;-inkscape-font-specification:'Ebrima, Bold';fill:#cccccc;stroke-width:1.92722"
       id="path921" />
    <path
       id="path1029"
       style="font-weight:bold;font-size:58.9507px;line-height:1.25;font-family:Ebrima;-inkscape-font-specification:'Ebrima, Bold';stroke-width:7.28398;fill:#f2f2f2"
       d="M 331.18555 235.10742 C 330.05684 237.24114 328.95002 239.38909 327.85156 241.54297 C 328.95002 239.38909 330.05684 237.24114 331.18555 235.10742 z M 327.85156 241.54297 C 322.21201 252.60114 316.96533 263.92203 312.12305 275.51172 C 306.43246 289.26397 301.40576 303.49071 297.04297 318.19141 C 292.68021 332.89209 289.17124 348.16121 286.51562 364 L 333.46289 364 C 335.92882 347.30763 339.10559 331.75405 342.99414 317.33789 C 346.88273 302.82689 351.57723 288.60014 357.07812 274.6582 C 361.36971 263.70725 366.18691 252.6671 371.51758 241.54297 L 327.85156 241.54297 z "
       transform="scale(0.26458333)" />
    <path
       id="path1031"
       style="font-weight:bold;font-size:58.9507px;line-height:1.25;font-family:Ebrima;-inkscape-font-specification:'Ebrima, Bold';fill:#cccccc;stroke-width:1.92722"
       d="M 55.3325 46.4323 L 62.944 56.5888 L 95.4027 56.5888 C 92.3268 59.0288 89.7888 61.1717 87.6927 63.0676 C 87.3818 63.3525 87.0837 63.633 86.7943 63.9082 L 98.3793 63.9082 C 98.9622 63.5057 99.5738 63.0895 100.22 62.6581 C 103.46 60.4846 107.721 57.7267 113.42 54.138 L 119.195 46.4323 Z" />
  </g>
</svg>
