<?xml version="1.0" encoding="UTF-8" standalone="no"?>
<svg
   sodipodi:docname="Letter S Inner Shadow.svg"
   inkscape:version="1.2.2 (732a01da63, 2022-12-09)"
   id="svg8"
   version="1.1"
   viewBox="0 0 45.647266 62.030563"
   height="62.030563mm"
   width="45.647266mm"
   xmlns:inkscape="http://www.inkscape.org/namespaces/inkscape"
   xmlns:sodipodi="http://sodipodi.sourceforge.net/DTD/sodipodi-0.dtd"
   xmlns="http://www.w3.org/2000/svg"
   xmlns:svg="http://www.w3.org/2000/svg"
   xmlns:rdf="http://www.w3.org/1999/02/22-rdf-syntax-ns#"
   xmlns:cc="http://creativecommons.org/ns#"
   xmlns:dc="http://purl.org/dc/elements/1.1/">
  <defs
     id="defs2">
    <clipPath
       id="clipPath8121"
       clipPathUnits="userSpaceOnUse">
      <path
         d="m 30.956324,-34.395865 v 87.577083 h 84.402086 v -87.577083 z m 47.135108,11.372949 c 4.331216,0 9.622981,0.752783 15.874998,2.259294 v 0.395841 l 0.112657,2.146639 c 0,1.129883 0.03785,2.485616 0.11317,4.067452 0.112988,1.920801 0.1695,3.615597 0.1695,5.0844443 0,0.9792324 -0.03785,2.1846154 -0.113173,3.6158003 h -1.186492 c -0.03766,-4.3688804 -1.769782,-7.6081216 -5.197097,-9.7172366 -3.351985,-2.071451 -7.419702,-3.106787 -12.202872,-3.106787 -3.803938,0 -6.930159,0.809811 -9.37824,2.429309 -2.485742,1.619499 -3.728453,3.559001 -3.728453,5.818766 0,2.4104171 0.979342,4.3120733 2.937803,5.7055954 2.033789,1.5065105 6.044997,3.2956625 12.033375,5.3671143 5.574088,1.9208008 9.471758,3.4839113 11.693861,4.6891196 2.372754,1.3181962 4.350102,3.2011876 5.931937,5.6492667 1.581835,2.523405 2.372982,5.329228 2.372982,8.417574 0,4.707845 -1.732645,8.399172 -5.197615,11.073226 1.280533,-1.77015 1.920811,-4.256091 1.920811,-7.457426 0,-3.013021 -0.696788,-5.687158 -2.090311,-8.022249 C 90.689425,13.020073 88.881609,11.137081 86.734833,9.7435596 84.550393,8.3123749 80.991266,6.7871102 76.057448,5.1676118 68.637883,2.7195322 63.798204,0.62916361 61.538438,-1.1033233 59.278671,-2.8734732 58.14898,-5.6227856 58.14898,-9.3513987 c 0,-4.2935543 1.732642,-7.6644823 5.197615,-10.1125613 3.464973,-2.372754 8.37983,-3.558956 14.744837,-3.558956 z m -23.219256,10.338387 c -0.451954,1.468848 -0.677995,2.7494063 -0.677995,3.8416264 0,2.9376952 0.696791,5.5174764 2.090314,7.7395793 1.431184,2.2974283 3.201673,4.0295533 5.310786,5.1970987 2.109115,1.2052081 5.630391,2.5801228 10.564214,4.1242962 6.440332,1.9584634 11.091815,4.1240064 13.954186,6.4967604 2.749381,2.297429 4.12378,5.385804 4.12378,9.265067 0,3.803939 -1.430909,7.250041 -4.29328,10.338388 -2.900032,3.126009 -7.231634,4.68912 -12.994037,4.68912 -2.335091,0 -5.573815,-0.432903 -9.716719,-1.299146 -3.615627,-0.753256 -6.327609,-1.148829 -8.135422,-1.18649 l -0.395325,-0.45217 c 0.03766,-0.640268 0.05633,-1.468742 0.05633,-2.485636 0,-1.205209 -0.112503,-3.069535 -0.338481,-5.59294 -0.188312,-2.523406 -0.282671,-4.406398 -0.282671,-5.649268 0,-1.619499 0.07518,-3.013078 0.225828,-4.180624 h 1.299662 c 0.263639,4.820833 2.203141,8.794194 5.818767,11.920203 3.5403,3.088347 7.608014,4.632275 12.202872,4.632275 3.540299,0 6.421297,-0.998005 8.6434,-2.994131 2.222103,-1.996127 3.333131,-4.387712 3.333131,-7.174757 0,-2.937695 -1.073182,-5.21626 -3.219961,-6.835758 C 80.370101,16.127129 76.28372,14.338494 70.182354,12.342367 65.286194,10.722869 61.802246,9.3857998 59.730796,8.3312426 57.320379,7.0883717 55.437387,5.4122405 54.081527,3.3031261 52.612679,1.1563488 51.878045,-1.2539012 51.878045,-3.9279571 c 0,-2.9753581 0.998006,-5.8942015 2.994131,-8.7565719 z"
         style="opacity:0.616129;fill:#f73b3b;fill-opacity:1;stroke-width:0.264583"
         id="path8123" />
    </clipPath>
    <clipPath
       id="clipPath10051"
       clipPathUnits="userSpaceOnUse">
      <path
         d="m 133.47414,17.102772 h 1.29936 q 0.39546,7.231249 5.8189,11.920263 5.31045,4.632518 12.20273,4.632518 5.31045,0 8.64361,-2.994189 3.33315,-2.994189 3.33315,-7.174755 0,-4.406543 -3.22017,-6.835791 -3.10717,-2.372753 -12.25922,-5.366943 -7.34424,-2.4292479 -10.45142,-4.0110837 -3.61562,-1.8643066 -5.64941,-5.0279784 -2.20328,-3.22016592 -2.20328,-7.2312499 0,-4.4630369 2.99419,-8.756591 -0.67793,2.203271 -0.67793,3.841601 0,4.4065429 2.09029,7.7396971 2.14678,3.4461425 5.31045,5.1974609 3.16367,1.8078122 10.5644,4.1240721 9.6605,2.9376949 13.95405,6.4968259 4.12408,3.446143 4.12408,9.265039 0,5.705907 -4.29356,10.338428 -4.35005,4.689012 -12.99365,4.689012 -3.50264,0 -9.71699,-1.299363 -5.42344,-1.129885 -8.13516,-1.186379 l -0.39546,-0.451953 q 0.0565,-0.9604 0.0565,-2.485742 0,-1.807813 -0.33896,-5.592919 -0.28247,-3.785108 -0.28247,-5.649414 0,-2.429248 0.22597,-4.180566 z M 173.359,-6.5117787 h -1.18638 q -0.0565,-6.5533203 -5.19746,-9.7169923 -5.02798,-3.107177 -12.20273,-3.107177 -5.70591,0 -9.37803,2.429248 -3.72861,2.429248 -3.72861,5.818896 0,3.6156251 2.93769,5.7059081 3.05069,2.2597657 12.03325,5.36694326 8.36114,2.88120114 11.69429,4.68901354 3.55913,1.9772948 5.93189,5.6494141 2.37275,3.785107 2.37275,8.417627 0,7.061767 -5.19746,11.072852 1.9208,-2.655226 1.9208,-7.457228 0,-4.519531 -2.09028,-8.022167 -2.20328,-3.559131 -5.42344,-5.6494142 -3.27666,-2.1467773 -10.67739,-4.5760254 -11.12935,-3.67211893 -14.519,-6.2708493 -3.38965,-2.6552245 -3.38965,-8.2481441 0,-6.440332 5.19747,-10.112451 5.19746,-3.559131 14.74497,-3.559131 6.49682,0 15.87485,2.259766 v 0.395459 l 0.11299,2.146777 q 0,1.694824 0.11299,4.067578 0.16948,2.881201 0.16948,5.084472 0,1.468848 -0.11299,3.6156253 z"
         style="font-style:normal;font-variant:normal;font-weight:normal;font-stretch:normal;font-size:115.7px;line-height:1.25;font-family:'Colonna MT';-inkscape-font-specification:'Colonna MT, Normal';font-variant-ligatures:normal;font-variant-caps:normal;font-variant-numeric:normal;font-variant-east-asian:normal;opacity:1;fill:#d2d2d2;fill-opacity:1;stroke:none;stroke-width:2.89248"
         id="path10053" />
    </clipPath>
  </defs>
  <sodipodi:namedview
     inkscape:window-maximized="1"
     inkscape:window-y="-9"
     inkscape:window-x="-9"
     inkscape:window-height="1001"
     inkscape:window-width="1920"
     inkscape:object-nodes="false"
     showborder="false"
     showgrid="false"
     inkscape:document-rotation="0"
     inkscape:current-layer="layer1"
     inkscape:document-units="px"
     inkscape:cy="300.52038"
     inkscape:cx="-36.769553"
     inkscape:zoom="0.70710678"
     inkscape:pageshadow="2"
     inkscape:pageopacity="0.0"
     borderopacity="1.0"
     bordercolor="#666666"
     pagecolor="#ffffff"
     id="base"
     inkscape:showpageshadow="2"
     inkscape:pagecheckerboard="0"
     inkscape:deskcolor="#d1d1d1" />
  <metadata
     id="metadata5">
    <rdf:RDF>
      <cc:Work
         rdf:about="">
        <dc:format>image/svg+xml</dc:format>
        <dc:type
           rdf:resource="http://purl.org/dc/dcmitype/StillImage" />
      </cc:Work>
    </rdf:RDF>
  </metadata>
  <g
     id="layer1"
     inkscape:groupmode="layer"
     inkscape:label="Layer 1"
     transform="translate(-51.084228,24.081456)">
    <path
       d="m 53.569971,17.102772 h 1.299365 q 0.395459,7.231249 5.818896,11.920263 5.310449,4.632519 12.202734,4.632519 5.310449,0 8.643603,-2.994189 3.333155,-2.994189 3.333155,-7.174756 0,-4.406543 -3.220166,-6.835791 Q 78.54038,14.278065 69.38833,11.283875 62.044091,8.8546272 58.936914,7.2727913 55.321289,5.4084847 53.2875,2.2448129 q -2.203272,-3.22016591 -2.203272,-7.2312498 0,-4.463037 2.99419,-8.7565911 -0.67793,2.203271 -0.67793,3.841601 0,4.4065429 2.090283,7.7396971 2.146778,3.4461425 5.310449,5.1974608 3.163672,1.8078124 10.564404,4.1240721 9.660498,2.937695 13.954053,6.496826 4.124072,3.446143 4.124072,9.265039 0,5.705908 -4.293555,10.338427 -4.350048,4.689014 -12.993652,4.689014 -3.502636,0 -9.716992,-1.299365 -5.423437,-1.129883 -8.135156,-1.186377 l -0.395459,-0.451953 q 0.05649,-0.960401 0.05649,-2.485743 0,-1.807812 -0.338965,-5.592919 -0.282471,-3.785108 -0.282471,-5.649414 0,-2.429248 0.225977,-4.180566 z M 93.454833,-6.5117786 h -1.186377 q -0.05649,-6.5533204 -5.197461,-9.7169924 -5.027978,-3.107177 -12.202734,-3.107177 -5.705908,0 -9.378027,2.429248 -3.728613,2.429248 -3.728613,5.818896 0,3.615625 2.937695,5.7059081 3.050683,2.2597656 12.033252,5.36694326 8.361132,2.88120114 11.694286,4.68901354 3.559131,1.9772949 5.931885,5.6494141 2.372754,3.785107 2.372754,8.417627 0,7.061767 -5.197461,11.072851 1.920801,-2.655225 1.920801,-7.457227 0,-4.519531 -2.090283,-8.022167 Q 89.161278,10.775428 85.941112,8.6851448 82.664452,6.5383675 75.26372,4.1091195 64.134375,0.43700047 60.744726,-2.1617299 q -3.389648,-2.6552246 -3.389648,-8.2481441 0,-6.440332 5.197461,-10.112451 5.19746,-3.559131 14.74497,-3.559131 6.496826,0 15.874853,2.259766 v 0.395459 l 0.112988,2.146777 q 0,1.694824 0.112989,4.067578 0.169482,2.881201 0.169482,5.084472 0,1.4688481 -0.112988,3.6156254 z"
       style="font-style:normal;font-variant:normal;font-weight:normal;font-stretch:normal;font-size:115.7px;line-height:1.25;font-family:'Colonna MT';-inkscape-font-specification:'Colonna MT, Normal';font-variant-ligatures:normal;font-variant-caps:normal;font-variant-numeric:normal;font-variant-east-asian:normal;opacity:0.628205;fill:#bababa;fill-opacity:1;stroke:none;stroke-width:2.89249"
       id="path7159" />
    <path
       clip-path="url(#clipPath8121)"
       id="path8119"
       style="font-style:normal;font-variant:normal;font-weight:normal;font-stretch:normal;font-size:115.7px;line-height:1.25;font-family:'Colonna MT';-inkscape-font-specification:'Colonna MT, Normal';font-variant-ligatures:normal;font-variant-caps:normal;font-variant-numeric:normal;font-variant-east-asian:normal;opacity:0.435484;fill:#0f0f0f;fill-opacity:1;stroke:none;stroke-width:2.89249"
       d="m 53.569971,17.102772 h 1.299365 q 0.395459,7.231249 5.818896,11.920263 5.310449,4.632519 12.202734,4.632519 5.310449,0 8.643603,-2.994189 3.333155,-2.994189 3.333155,-7.174756 0,-4.406543 -3.220166,-6.835791 Q 78.54038,14.278065 69.38833,11.283875 62.044091,8.8546272 58.936914,7.2727913 55.321289,5.4084847 53.2875,2.2448129 q -2.203272,-3.22016591 -2.203272,-7.2312498 0,-4.463037 2.99419,-8.7565911 -0.67793,2.203271 -0.67793,3.841601 0,4.4065429 2.090283,7.7396971 2.146778,3.4461425 5.310449,5.1974608 3.163672,1.8078124 10.564404,4.1240721 9.660498,2.937695 13.954053,6.496826 4.124072,3.446143 4.124072,9.265039 0,5.705908 -4.293555,10.338427 -4.350048,4.689014 -12.993652,4.689014 -3.502636,0 -9.716992,-1.299365 -5.423437,-1.129883 -8.135156,-1.186377 l -0.395459,-0.451953 q 0.05649,-0.960401 0.05649,-2.485743 0,-1.807812 -0.338965,-5.592919 -0.282471,-3.785108 -0.282471,-5.649414 0,-2.429248 0.225977,-4.180566 z M 93.454833,-6.5117786 h -1.186377 q -0.05649,-6.5533204 -5.197461,-9.7169924 -5.027978,-3.107177 -12.202734,-3.107177 -5.705908,0 -9.378027,2.429248 -3.728613,2.429248 -3.728613,5.818896 0,3.615625 2.937695,5.7059081 3.050683,2.2597656 12.033252,5.36694326 8.361132,2.88120114 11.694286,4.68901354 3.559131,1.9772949 5.931885,5.6494141 2.372754,3.785107 2.372754,8.417627 0,7.061767 -5.197461,11.072851 1.920801,-2.655225 1.920801,-7.457227 0,-4.519531 -2.090283,-8.022167 Q 89.161278,10.775428 85.941112,8.6851448 82.664452,6.5383675 75.26372,4.1091195 64.134375,0.43700047 60.744726,-2.1617299 q -3.389648,-2.6552246 -3.389648,-8.2481441 0,-6.440332 5.197461,-10.112451 5.19746,-3.559131 14.74497,-3.559131 6.496826,0 15.874853,2.259766 v 0.395459 l 0.112988,2.146777 q 0,1.694824 0.112989,4.067578 0.169482,2.881201 0.169482,5.084472 0,1.4688481 -0.112988,3.6156254 z" />
  </g>
</svg>
