<?xml version="1.0" encoding="UTF-8" standalone="no"?>
<svg
   sodipodi:docname="Letter D.svg"
   inkscape:version="1.2.2 (732a01da63, 2022-12-09)"
   id="svg8"
   version="1.1"
   viewBox="0 0 79.375004 117.33599"
   height="117.33599mm"
   width="79.375008mm"
   xmlns:inkscape="http://www.inkscape.org/namespaces/inkscape"
   xmlns:sodipodi="http://sodipodi.sourceforge.net/DTD/sodipodi-0.dtd"
   xmlns:xlink="http://www.w3.org/1999/xlink"
   xmlns="http://www.w3.org/2000/svg"
   xmlns:svg="http://www.w3.org/2000/svg"
   xmlns:rdf="http://www.w3.org/1999/02/22-rdf-syntax-ns#"
   xmlns:cc="http://creativecommons.org/ns#"
   xmlns:dc="http://purl.org/dc/elements/1.1/">
  <defs
     id="defs2">
    <linearGradient
       id="linearGradient930"
       inkscape:collect="always">
      <stop
         id="stop926"
         offset="0"
         style="stop-color:#00ffff;stop-opacity:1" />
      <stop
         id="stop928"
         offset="1"
         style="stop-color:#000000;stop-opacity:1" />
    </linearGradient>
    <linearGradient
       gradientTransform="scale(0.26458333)"
       gradientUnits="userSpaceOnUse"
       y2="-111"
       x2="169"
       y1="-111"
       x1="394"
       id="linearGradient916"
       xlink:href="#linearGradient930"
       inkscape:collect="always" />
    <linearGradient
       gradientTransform="matrix(0.26458333,0,0,0.26458333,1.6000026e-5,-2.0000261e-6)"
       y2="-182.7373"
       x2="469.00385"
       y1="-65.71994"
       x1="259.21106"
       gradientUnits="userSpaceOnUse"
       id="linearGradient924"
       xlink:href="#linearGradient930"
       inkscape:collect="always" />
  </defs>
  <sodipodi:namedview
     inkscape:snap-midpoints="true"
     inkscape:snap-bbox="false"
     inkscape:snap-smooth-nodes="true"
     inkscape:snap-intersection-paths="true"
     inkscape:object-paths="true"
     showborder="false"
     units="mm"
     inkscape:window-maximized="1"
     inkscape:window-y="-9"
     inkscape:window-x="-9"
     inkscape:window-height="1001"
     inkscape:window-width="1920"
     showgrid="false"
     inkscape:document-rotation="0"
     inkscape:current-layer="layer1"
     inkscape:document-units="px"
     inkscape:cy="307"
     inkscape:cx="-388"
     inkscape:zoom="0.5"
     inkscape:pageshadow="2"
     inkscape:pageopacity="0.0"
     borderopacity="1.0"
     bordercolor="#666666"
     pagecolor="#ffffff"
     id="base"
     inkscape:showpageshadow="2"
     inkscape:pagecheckerboard="0"
     inkscape:deskcolor="#d1d1d1" />
  <metadata
     id="metadata5">
    <rdf:RDF>
      <cc:Work
         rdf:about="">
        <dc:format>image/svg+xml</dc:format>
        <dc:type
           rdf:resource="http://purl.org/dc/dcmitype/StillImage" />
      </cc:Work>
    </rdf:RDF>
  </metadata>
  <g
     id="layer1"
     inkscape:groupmode="layer"
     inkscape:label="Layer 1"
     transform="translate(-44.714582,107.01724)">
    <path
       d="M 84.40208,-69.056249 A 39.6875,39.6875 0 0 0 44.714582,-29.36875 39.6875,39.6875 0 0 0 84.40208,10.318749 39.6875,39.6875 0 0 0 124.08958,-29.36875 39.6875,39.6875 0 0 0 84.40208,-69.056249 Z m 0,19.84375 A 19.84375,19.84375 0 0 1 104.24583,-29.36875 19.84375,19.84375 0 0 1 84.40208,-9.525001 19.84375,19.84375 0 0 1 64.558332,-29.36875 19.84375,19.84375 0 0 1 84.40208,-49.212499 Z"
       style="opacity:1;fill:url(#linearGradient916);fill-opacity:1;stroke-width:0.502372"
       id="path835" />
    <path
       d="m 124.08959,-107.01724 c -10.99343,0 -19.84375,8.85031 -19.84375,19.84375 v 57.804222 a 19.843749,19.843749 0 0 1 0,5.16e-4 19.843749,19.843749 0 0 1 -4.639509,12.751677 19.843749,19.843749 0 0 1 -0.0155,0.0186 19.843749,19.843749 0 0 1 -0.109038,0.128674 19.843749,19.843749 0 0 1 -0.0155,0.01809 19.843749,19.843749 0 0 1 -0.110588,0.127641 19.843749,19.843749 0 0 1 -0.0155,0.01809 19.843749,19.843749 0 0 1 -0.11162,0.12609 19.843749,19.843749 0 0 1 -0.01602,0.01809 19.843749,19.843749 0 0 1 -0.02377,0.02635 19.843749,19.843749 0 0 1 -0.10542,0.116789 19.843749,19.843749 0 0 1 -0.113689,0.12454 19.843749,19.843749 0 0 1 -0.01654,0.01757 19.843749,19.843749 0 0 1 -0.115237,0.12299 19.843749,19.843749 0 0 1 -0.01654,0.01757 19.843749,19.843749 0 0 1 -0.116273,0.121956 19.843749,19.843749 0 0 1 -0.01654,0.01757 19.843749,19.843749 0 0 1 -0.117821,0.120923 19.843749,19.843749 0 0 1 -0.01654,0.01705 19.843749,19.843749 0 0 1 -0.118856,0.11989 19.843749,19.843749 0 0 1 -0.01705,0.01705 19.843749,19.843749 0 0 1 -0.119891,0.118339 19.843749,19.843749 0 0 1 -0.01705,0.01705 19.843749,19.843749 0 0 1 -0.120923,0.117306 19.843749,19.843749 0 0 1 -0.01757,0.01654 19.843749,19.843749 0 0 1 -0.121954,0.116272 19.843749,19.843749 0 0 1 -0.01757,0.01654 19.843749,19.843749 0 0 1 -0.123508,0.115239 19.843749,19.843749 0 0 1 -0.02222,0.02015 19.843749,19.843749 0 0 1 -0.119891,0.109554 19.843749,19.843749 0 0 1 -0.116787,0.10542 19.843749,19.843749 0 0 1 -0.02636,0.02377 19.843749,19.843749 0 0 1 -0.01809,0.01602 19.843749,19.843749 0 0 1 -0.126609,0.111104 19.843749,19.843749 0 0 1 -0.01809,0.01602 19.843749,19.843749 0 0 1 -0.12764,0.110071 19.843749,19.843749 0 0 1 -0.121438,0.103353 19.843749,19.843749 0 0 1 -0.02532,0.02119 19.843749,19.843749 0 0 1 -0.0186,0.0155 19.843749,19.843749 0 0 1 -0.129707,0.107486 19.843749,19.843749 0 0 1 -0.01861,0.0155 19.843749,19.843749 0 0 1 -0.130741,0.106454 19.843749,19.843749 0 0 1 -0.0186,0.01499 19.843749,19.843749 0 0 1 -0.283702,0.223759 19.843749,19.843749 0 0 1 -0.01912,0.01499 19.843749,19.843749 0 0 1 -0.133842,0.102319 19.843749,19.843749 0 0 1 -0.153996,0.115756 19.843749,19.843749 0 0 1 -0.01912,0.01447 19.843749,19.843749 0 0 1 -0.135909,0.09974 19.843749,19.843749 0 0 1 -0.01964,0.01447 19.843749,19.843749 0 0 1 -0.136425,0.0987 19.843749,19.843749 0 0 1 -0.01964,0.01395 19.843749,19.843749 0 0 1 -0.137975,0.09715 19.843749,19.843749 0 0 1 -0.01964,0.01395 19.843749,19.843749 0 0 1 -0.138494,0.0956 19.843749,19.843749 0 0 1 -0.02015,0.01395 19.843749,19.843749 0 0 1 -0.139528,0.09457 19.843749,19.843749 0 0 1 -0.01964,0.01344 19.843749,19.843749 0 0 1 -0.141078,0.09302 19.843749,19.843749 0 0 1 -0.161229,0.104903 19.843749,19.843749 0 0 1 -0.135912,0.08682 l -5.16e-4,5.17e-4 a 19.843749,19.843749 0 0 1 -10.603486,3.070613 19.843749,19.843749 0 0 1 -19.843753,-19.84375 19.843749,19.843749 0 0 1 19.693374,-19.843233 31.591834,29.734568 0 0 0 -31.441494,29.734102 31.591834,29.734568 0 0 0 31.591873,29.734622 31.591834,29.734568 0 0 0 0.02894,0 l -0.02894,0.062 a 39.6875,39.6875 0 0 0 39.687502,-39.687503 z"
       style="opacity:1;fill:url(#linearGradient924);fill-opacity:1;stroke-width:0.387964"
       id="path846" />
  </g>
</svg>
