<?xml version="1.0" encoding="UTF-8" standalone="no"?>
<svg
   sodipodi:docname="Letter S.svg"
   inkscape:version="1.2.2 (732a01da63, 2022-12-09)"
   id="svg964"
   version="1.1"
   viewBox="0 0 79.375 138.90625"
   height="138.90625mm"
   width="79.375mm"
   xmlns:inkscape="http://www.inkscape.org/namespaces/inkscape"
   xmlns:sodipodi="http://sodipodi.sourceforge.net/DTD/sodipodi-0.dtd"
   xmlns="http://www.w3.org/2000/svg"
   xmlns:svg="http://www.w3.org/2000/svg"
   xmlns:rdf="http://www.w3.org/1999/02/22-rdf-syntax-ns#"
   xmlns:cc="http://creativecommons.org/ns#"
   xmlns:dc="http://purl.org/dc/elements/1.1/">
  <defs
     id="defs958">
    <filter
       height="1.000017"
       y="-8.4857137e-06"
       width="1.0000297"
       x="-1.485e-05"
       id="filter1551"
       style="color-interpolation-filters:sRGB"
       inkscape:collect="always">
      <feGaussianBlur
         id="feGaussianBlur1553"
         stdDeviation="0.00049113281"
         inkscape:collect="always" />
    </filter>
  </defs>
  <sodipodi:namedview
     inkscape:window-maximized="1"
     inkscape:window-y="-9"
     inkscape:window-x="-9"
     inkscape:window-height="1001"
     inkscape:window-width="1920"
     inkscape:object-nodes="true"
     inkscape:lockguides="true"
     showborder="false"
     inkscape:snap-smooth-nodes="true"
     inkscape:snap-intersection-paths="true"
     inkscape:object-paths="true"
     showgrid="false"
     inkscape:document-rotation="0"
     inkscape:current-layer="layer1"
     inkscape:document-units="px"
     inkscape:cy="306.5"
     inkscape:cx="106"
     inkscape:zoom="1"
     inkscape:pageshadow="2"
     inkscape:pageopacity="0.0"
     borderopacity="1.0"
     bordercolor="#666666"
     pagecolor="#ffffff"
     id="base"
     inkscape:showpageshadow="2"
     inkscape:pagecheckerboard="0"
     inkscape:deskcolor="#d1d1d1" />
  <metadata
     id="metadata961">
    <rdf:RDF>
      <cc:Work
         rdf:about="">
        <dc:format>image/svg+xml</dc:format>
        <dc:type
           rdf:resource="http://purl.org/dc/dcmitype/StillImage" />
      </cc:Work>
    </rdf:RDF>
  </metadata>
  <g
     style="filter:url(#filter1551)"
     id="layer1"
     inkscape:groupmode="layer"
     inkscape:label="Layer 1"
     transform="translate(-42.597917,-65.616662)">
    <path
       id="circle1531"
       style="opacity:0.497;fill:#000000;stroke-width:0.264583"
       d="m 82.254411,65.616667 a 29.765625,29.765625 0 0 0 -0.04703,0.0036 39.687499,39.687499 0 0 0 -39.609468,39.683883 39.687499,39.687499 0 0 0 39.686983,39.6875 l 5.17e-4,-0.0558 v 0.0558 a 19.843749,19.843749 0 0 1 0.19637,0.004 19.893292,19.84364 0 0 0 -0.03411,-0.002 29.839938,29.76546 0 0 1 0.04961,0.002 19.843749,19.843749 0 0 1 1.322917,0.0579 29.839938,29.76546 0 0 1 28.27424,29.70413 29.839938,29.76546 0 0 1 -29.078325,29.75426 v 0.002 a 39.687497,39.687497 0 0 0 38.956795,-39.6782 39.687497,39.687497 0 0 0 -39.505082,-39.68337 v -0.005 a 19.843749,19.843749 0 0 1 -0.02325,0 19.843749,19.843749 0 0 1 -0.0057,0 19.843749,19.843749 0 0 1 -0.153479,0.001 19.843749,19.843749 0 0 1 -0.485242,-0.0295 19.84375,19.84375 0 0 1 -2.707845,-0.262 19.843749,19.843749 0 0 1 -0.811837,-0.14883 19.84375,19.84375 0 0 1 -2.726965,-0.75396 19.843749,19.843749 0 0 1 -0.237712,-0.0744 19.84375,19.84375 0 0 1 -2.75642,-1.30896 19.843749,19.843749 0 0 1 -0.68678,-0.41497 19.84375,19.84375 0 0 1 -2.071192,-1.46864 19.843749,19.843749 0 0 1 -0.469222,-0.36794 19.84375,19.84375 0 0 1 -2.135787,-2.15645 19.843749,19.843749 0 0 1 -0.439249,-0.56069 19.84375,19.84375 0 0 1 -1.414901,-2.03709 19.843749,19.843749 0 0 1 -0.390157,-0.64544 19.84375,19.84375 0 0 1 -1.276925,-2.75797 19.843749,19.843749 0 0 1 -0.149345,-0.47852 19.84375,19.84375 0 0 1 -0.670243,-2.51664 19.843749,19.843749 0 0 1 -0.148828,-0.81391 19.84375,19.84375 0 0 1 -0.2651,-3.04787 19.84375,19.84375 0 0 1 0.267684,-3.06442 19.843749,19.843749 0 0 1 0.149345,-0.81287 19.84375,19.84375 0 0 1 0.688846,-2.570379 19.843749,19.843749 0 0 1 0.135393,-0.434598 19.84375,19.84375 0 0 1 1.291911,-2.769857 19.843749,19.843749 0 0 1 0.397908,-0.658358 19.84375,19.84375 0 0 1 1.44694,-2.06654 19.843749,19.843749 0 0 1 0.410311,-0.523999 19.84375,19.84375 0 0 1 2.154391,-2.154391 19.843749,19.843749 0 0 1 0.523999,-0.410311 19.84375,19.84375 0 0 1 2.06654,-1.44694 19.843749,19.843749 0 0 1 0.658358,-0.397908 19.84375,19.84375 0 0 1 2.769857,-1.291911 19.843749,19.843749 0 0 1 0.434598,-0.135392 19.84375,19.84375 0 0 1 2.570386,-0.688847 19.843749,19.843749 0 0 1 0.81287,-0.149345 19.84375,19.84375 0 0 1 3.064413,-0.267684 19.84375,19.84375 0 0 1 19.843771,19.84333 A 19.84375,19.84375 0 0 1 85.057341,124.94741 29.765625,29.765625 0 0 0 112.05104,95.382292 29.765625,29.765625 0 0 0 83.016122,65.634754 v -0.01137 a 39.687499,39.687499 0 0 0 -0.730705,-0.0067 29.765625,29.765625 0 0 0 -0.03101,0 z m 2.80293,59.330743 a 29.765625,29.765625 0 0 1 -2.612761,0.19947 19.84375,19.84375 0 0 0 2.612761,-0.19947 z m -5.421892,0.009 a 29.765625,29.765625 0 0 0 1.839681,0.14262 19.843749,19.843749 0 0 1 -1.839681,-0.14262 z m 14.676107,24.09775 a 19.843749,19.843749 0 0 1 0.05168,0.0398 19.893292,19.84364 0 0 0 -0.05168,-0.0398 z m 1.354956,1.1312 a 19.843749,19.843749 0 0 1 0.10232,0.092 19.893292,19.84364 0 0 0 -0.10232,-0.092 z m 1.251087,1.24953 a 19.843749,19.843749 0 0 1 0.204638,0.22738 19.893292,19.84364 0 0 0 -0.204638,-0.22738 z m 1.11466,1.32964 a 19.843749,19.843749 0 0 1 0.288355,0.38654 19.893292,19.84364 0 0 0 -0.288355,-0.38654 z m 1.016476,1.45572 a 19.843749,19.843749 0 0 1 0.280603,0.45372 19.893292,19.84364 0 0 0 -0.280603,-0.45372 z m 0.842842,1.46865 a 19.843749,19.843749 0 0 1 0.363803,0.73484 19.893292,19.84364 0 0 0 -0.363803,-0.73484 z m 0.759123,1.63401 a 19.843749,19.843749 0 0 1 0.34572,0.91415 19.893292,19.84364 0 0 0 -0.34572,-0.91415 z m 0.56173,1.56011 a 19.843749,19.843749 0 0 1 0.29662,1.03198 19.893292,19.84364 0 0 0 -0.29662,-1.03198 z m 0.47284,1.78439 a 19.843749,19.843749 0 0 1 0.22117,1.21543 19.893292,19.84364 0 0 0 -0.22117,-1.21543 z m 0.43253,3.51554 a 19.843749,19.843749 0 0 1 0.0114,0.65268 19.843749,19.843749 0 0 1 -0.0114,0.64647 19.893292,19.84364 0 0 0 0.03,-0.64647 19.893292,19.84364 0 0 0 -0.03,-0.65268 z m -0.21394,3.622 a 19.843749,19.843749 0 0 1 -0.22014,1.20717 19.893292,19.84364 0 0 0 0.22014,-1.20717 z m -0.39998,1.97146 a 19.843749,19.843749 0 0 1 -0.2992,1.03611 19.893292,19.84364 0 0 0 0.2992,-1.03611 z m -0.52658,1.71256 a 19.843749,19.843749 0 0 1 -0.33693,0.88573 19.893292,19.84364 0 0 0 0.33693,-0.88573 z m -0.74052,1.7973 a 19.843749,19.843749 0 0 1 -0.373108,0.75035 19.893292,19.84364 0 0 0 0.373108,-0.75035 z m -0.929146,1.74615 a 19.843749,19.843749 0 0 1 -0.286804,0.46406 19.893292,19.84364 0 0 0 0.286804,-0.46406 z m -1.053683,1.58027 a 19.843749,19.843749 0 0 1 -0.272851,0.35966 19.893292,19.84364 0 0 0 0.272851,-0.35966 z m -1.182873,1.45314 a 19.843749,19.843749 0 0 1 -0.204639,0.22789 19.893292,19.84364 0 0 0 0.204639,-0.22789 z m -1.359607,1.37924 a 19.843749,19.843749 0 0 1 -0.132292,0.11937 19.893292,19.84364 0 0 0 0.132292,-0.11937 z m -1.452625,1.21285 a 19.843749,19.843749 0 0 1 -0.0248,0.0196 19.893292,19.84364 0 0 0 0.0248,-0.0196 z m -1.52032,1.04128 a 19.843749,19.843749 0 0 1 -0.02429,0.015 19.893292,19.84364 0 0 0 0.02429,-0.015 z m -8.635649,2.89388 a 19.843749,19.843749 0 0 1 -0.02791,0.002 19.893292,19.84364 0 0 0 0.02791,-0.002 z" />
    <path
       d="m 82.285409,204.52291 a 29.839938,29.76546 0 0 0 29.808851,-29.76545 29.839938,29.76546 0 0 0 -29.646711,-29.76442 19.893292,19.84364 0 0 1 19.700081,19.84261 19.893292,19.84364 0 0 1 -19.893311,19.84363 19.893292,19.84364 0 0 1 -19.89329,-19.84363 19.893292,19.84364 0 0 1 19.74408,-19.84313 29.839938,29.76546 0 0 0 -29.69073,29.76494 29.839938,29.76546 0 0 0 29.83994,29.76545 29.839938,29.76546 0 0 0 0.0311,0 z"
       style="opacity:0.497;fill:#000000;stroke-width:0.198682"
       id="circle1541" />
    <path
       d="M 310.88281,248 A 112.5,112.5 0 0 0 198.5,360.5 112.5,112.5 0 0 0 310.27148,472.99609 75,75 0 0 1 236,398 75,75 0 0 1 311,323 75,75 0 0 1 386,398 75,75 0 0 1 311.5625,472.99805 112.5,112.5 0 0 0 423.5,360.5 112.5,112.5 0 0 0 311,248 a 112.5,112.5 0 0 0 -0.11719,0 z"
       style="opacity:0.497;fill:#000000;stroke-width:0.749994"
       id="circle1539"
       transform="scale(0.26458333)" />
    <path
       d="m 82.285409,204.52291 a 29.839938,29.76546 0 0 0 29.808851,-29.76545 29.839938,29.76546 0 0 0 -29.646711,-29.76442 19.893292,19.84364 0 0 1 19.700081,19.84261 19.893292,19.84364 0 0 1 -19.893311,19.84363 19.893292,19.84364 0 0 1 -19.89329,-19.84363 19.893292,19.84364 0 0 1 19.74408,-19.84313 29.839938,29.76546 0 0 0 -29.69073,29.76494 29.839938,29.76546 0 0 0 29.83994,29.76545 29.839938,29.76546 0 0 0 0.0311,0 z"
       style="opacity:0.497;fill:#000000;stroke-width:0.198682"
       id="path1449" />
  </g>
</svg>
