<?xml version="1.0" encoding="UTF-8" standalone="no"?>
<svg
   xmlns:dc="http://purl.org/dc/elements/1.1/"
   xmlns:cc="http://creativecommons.org/ns#"
   xmlns:rdf="http://www.w3.org/1999/02/22-rdf-syntax-ns#"
   xmlns:svg="http://www.w3.org/2000/svg"
   xmlns="http://www.w3.org/2000/svg"
   xmlns:sodipodi="http://sodipodi.sourceforge.net/DTD/sodipodi-0.dtd"
   xmlns:inkscape="http://www.inkscape.org/namespaces/inkscape"
   sodipodi:docname="Letter S.svg"
   inkscape:version="1.0 (4035a4fb49, 2020-05-01)"
   id="svg964"
   version="1.1"
   viewBox="0 0 210 297"
   height="297mm"
   width="210mm">
  <defs
     id="defs958">
    <filter
       height="1.000017"
       y="-8.4857143e-06"
       width="1.0000297"
       x="-1.485e-05"
       id="filter1551"
       style="color-interpolation-filters:sRGB"
       inkscape:collect="always">
      <feGaussianBlur
         id="feGaussianBlur1553"
         stdDeviation="0.00049113281"
         inkscape:collect="always" />
    </filter>
  </defs>
  <sodipodi:namedview
     inkscape:window-maximized="1"
     inkscape:window-y="-8"
     inkscape:window-x="-8"
     inkscape:window-height="705"
     inkscape:window-width="1366"
     inkscape:object-nodes="true"
     inkscape:lockguides="true"
     showborder="false"
     inkscape:snap-smooth-nodes="true"
     inkscape:snap-intersection-paths="true"
     inkscape:object-paths="true"
     showgrid="false"
     inkscape:document-rotation="0"
     inkscape:current-layer="layer1"
     inkscape:document-units="px"
     inkscape:cy="612.88505"
     inkscape:cx="372.66227"
     inkscape:zoom="0.5"
     inkscape:pageshadow="2"
     inkscape:pageopacity="0.0"
     borderopacity="1.0"
     bordercolor="#666666"
     pagecolor="#ffffff"
     id="base" />
  <metadata
     id="metadata961">
    <rdf:RDF>
      <cc:Work
         rdf:about="">
        <dc:format>image/svg+xml</dc:format>
        <dc:type
           rdf:resource="http://purl.org/dc/dcmitype/StillImage" />
        <dc:title></dc:title>
      </cc:Work>
    </rdf:RDF>
  </metadata>
  <g
     style="filter:url(#filter1551)"
     id="layer1"
     inkscape:groupmode="layer"
     inkscape:label="Layer 1">
    <path
       d="m 82.285419,125.14792 a 39.687497,39.687497 0 0 0 -39.687498,39.6875 39.687497,39.687497 0 0 0 39.687498,39.68749 39.687497,39.687497 0 0 0 39.687501,-39.68749 39.687497,39.687497 0 0 0 -39.687501,-39.6875 z m 0,19.84374 A 19.843749,19.843749 0 0 1 102.12917,164.83542 19.843749,19.843749 0 0 1 82.285419,184.67916 19.843749,19.843749 0 0 1 62.44167,164.83542 19.843749,19.843749 0 0 1 82.285419,144.99166 Z"
       style="opacity:0.497;fill:#000000;stroke-width:0.264583"
       id="circle1531" />
    <path
       d="m 82.285409,204.52291 a 29.839938,29.76546 0 0 0 29.808851,-29.76545 29.839938,29.76546 0 0 0 -29.646711,-29.76442 19.893292,19.84364 0 0 1 19.700081,19.84261 19.893292,19.84364 0 0 1 -19.893311,19.84363 19.893292,19.84364 0 0 1 -19.89329,-19.84363 19.893292,19.84364 0 0 1 19.74408,-19.84313 29.839938,29.76546 0 0 0 -29.69073,29.76494 29.839938,29.76546 0 0 0 29.83994,29.76545 29.839938,29.76546 0 0 0 0.0311,0 z"
       style="opacity:0.497;fill:#000000;stroke-width:0.198682"
       id="circle1541" />
    <path
       transform="scale(0.26458333)"
       d="M 311 248 A 150 150 0 0 0 161 398 A 150 150 0 0 0 310.99805 548 L 311.68945 472.99609 A 74.999999 74.999999 0 0 1 311 473 A 74.999999 74.999999 0 0 1 236 398 A 74.999999 74.999999 0 0 1 311 323 A 74.999999 74.999999 0 0 1 313.07031 323.0293 L 313.76172 248.02539 A 150 150 0 0 0 311 248 z "
       style="opacity:0.497;fill:#000000;stroke-width:0.999999"
       id="path1527" />
    <path
       transform="scale(0.26458333)"
       d="M 310.88281 248 A 112.5 112.5 0 0 0 198.5 360.5 A 112.5 112.5 0 0 0 310.27148 472.99609 A 75 75 0 0 1 236 398 A 75 75 0 0 1 311 323 A 75 75 0 0 1 386 398 A 75 75 0 0 1 311.5625 472.99805 A 112.5 112.5 0 0 0 423.5 360.5 A 112.5 112.5 0 0 0 311 248 A 112.5 112.5 0 0 0 310.88281 248 z "
       style="opacity:0.497;fill:#000000;stroke-width:0.749994"
       id="circle1539" />
  </g>
</svg>
