<?xml version="1.0" encoding="UTF-8" standalone="no"?>
<svg
   xmlns:dc="http://purl.org/dc/elements/1.1/"
   xmlns:cc="http://creativecommons.org/ns#"
   xmlns:rdf="http://www.w3.org/1999/02/22-rdf-syntax-ns#"
   xmlns:svg="http://www.w3.org/2000/svg"
   xmlns="http://www.w3.org/2000/svg"
   xmlns:sodipodi="http://sodipodi.sourceforge.net/DTD/sodipodi-0.dtd"
   xmlns:inkscape="http://www.inkscape.org/namespaces/inkscape"
   width="210mm"
   height="297mm"
   viewBox="0 0 210 297"
   version="1.1"
   id="svg8"
   inkscape:version="1.0 (4035a4fb49, 2020-05-01)"
   sodipodi:docname="Line Art.svg">
  <defs
     id="defs2">
    <inkscape:path-effect
       fuse_tolerance="0"
       hide_knot="false"
       vertical_pattern="false"
       prop_units="false"
       tang_offset="0"
       normal_offset="0"
       spacing="0"
       scale_y_rel="false"
       prop_scale="0.1"
       copytype="single_stretched"
       pattern="M 0,5 C 0,2.24 2.24,0 5,0 7.76,0 10,2.24 10,5 10,7.76 7.76,10 5,10 2.24,10 0,7.76 0,5 Z"
       lpeversion="1"
       is_visible="true"
       id="path-effect881"
       effect="skeletal" />
    <inkscape:path-effect
       fuse_tolerance="0"
       hide_knot="false"
       vertical_pattern="false"
       prop_units="false"
       tang_offset="0"
       normal_offset="0"
       spacing="0"
       scale_y_rel="false"
       prop_scale="0.1"
       copytype="single_stretched"
       pattern="M 0,5 C 0,2.24 2.24,0 5,0 7.76,0 10,2.24 10,5 10,7.76 7.76,10 5,10 2.24,10 0,7.76 0,5 Z"
       lpeversion="1"
       is_visible="true"
       id="path-effect877"
       effect="skeletal" />
    <inkscape:path-effect
       fuse_tolerance="0"
       hide_knot="false"
       vertical_pattern="false"
       prop_units="false"
       tang_offset="0"
       normal_offset="0"
       spacing="0"
       scale_y_rel="false"
       prop_scale="0.2"
       copytype="single_stretched"
       pattern="M 0,5 C 0,2.24 2.24,0 5,0 7.76,0 10,2.24 10,5 10,7.76 7.76,10 5,10 2.24,10 0,7.76 0,5 Z"
       lpeversion="1"
       is_visible="true"
       id="path-effect873"
       effect="skeletal" />
    <inkscape:path-effect
       fuse_tolerance="0"
       hide_knot="false"
       vertical_pattern="false"
       prop_units="false"
       tang_offset="0"
       normal_offset="0"
       spacing="0"
       scale_y_rel="false"
       prop_scale="0.4"
       copytype="single_stretched"
       pattern="M 0,5 C 0,2.24 2.24,0 5,0 7.76,0 10,2.24 10,5 10,7.76 7.76,10 5,10 2.24,10 0,7.76 0,5 Z"
       lpeversion="1"
       is_visible="true"
       id="path-effect869"
       effect="skeletal" />
    <inkscape:path-effect
       fuse_tolerance="0"
       hide_knot="false"
       vertical_pattern="false"
       prop_units="false"
       tang_offset="0"
       normal_offset="0"
       spacing="0"
       scale_y_rel="false"
       prop_scale="1"
       copytype="single_stretched"
       pattern="M 0,5 C 0,2.24 2.24,0 5,0 7.76,0 10,2.24 10,5 10,7.76 7.76,10 5,10 2.24,10 0,7.76 0,5 Z"
       lpeversion="1"
       is_visible="true"
       id="path-effect865"
       effect="skeletal" />
    <inkscape:path-effect
       fuse_tolerance="0"
       hide_knot="false"
       vertical_pattern="false"
       prop_units="false"
       tang_offset="0"
       normal_offset="0"
       spacing="0"
       scale_y_rel="false"
       prop_scale="0"
       copytype="single_stretched"
       pattern="m 0,-216.67861 c 0,-7.53263 2.24,-13.64606 5,-13.64606 2.76,0 5,6.11343 5,13.64606 0,7.53262 -2.24,13.64605 -5,13.64605 -2.76,0 -5,-6.11343 -5,-13.64605 z"
       lpeversion="1"
       is_visible="true"
       id="path-effect861"
       effect="skeletal" />
    <inkscape:path-effect
       fuse_tolerance="0"
       hide_knot="false"
       vertical_pattern="false"
       prop_units="false"
       tang_offset="0"
       normal_offset="0"
       spacing="0"
       scale_y_rel="false"
       prop_scale="0.4"
       copytype="single_stretched"
       pattern="m 1.1732449,6.8977925 c 0,-2.7238082 2.2106286,-4.9344344 4.9344369,-4.9344344 2.7238083,0 4.9344342,2.2106262 4.9344342,4.9344344 0,2.7238083 -2.2106259,4.9344345 -4.9344342,4.9344345 -2.7238083,0 -4.9344369,-2.2106262 -4.9344369,-4.9344345 z"
       lpeversion="1"
       is_visible="true"
       id="path-effect857"
       effect="skeletal" />
    <inkscape:path-effect
       fuse_tolerance="0"
       hide_knot="false"
       vertical_pattern="false"
       prop_units="false"
       tang_offset="0"
       normal_offset="0"
       spacing="0"
       scale_y_rel="false"
       prop_scale="0.4"
       copytype="single_stretched"
       pattern="m 13.552033,26.23707 c 0,-2.360378 1.915712,-4.276114 4.27615,-4.276114 2.360429,0 4.276159,1.915736 4.276159,4.276114 0,2.360453 -1.91573,4.276188 -4.276159,4.276188 -2.360438,0 -4.27615,-1.915735 -4.27615,-4.276188 z"
       lpeversion="1"
       is_visible="true"
       id="path-effect853"
       effect="skeletal" />
    <inkscape:path-effect
       fuse_tolerance="0"
       hide_knot="false"
       vertical_pattern="false"
       prop_units="false"
       tang_offset="0"
       normal_offset="0"
       spacing="0"
       scale_y_rel="false"
       prop_scale="0.2"
       copytype="single_stretched"
       pattern="M 0,5 C 0,2.24 2.24,0 5,0 7.76,0 10,2.24 10,5 10,7.76 7.76,10 5,10 2.24,10 0,7.76 0,5 Z"
       lpeversion="1"
       is_visible="true"
       id="path-effect849"
       effect="skeletal" />
    <inkscape:path-effect
       fuse_tolerance="0"
       hide_knot="false"
       vertical_pattern="false"
       prop_units="false"
       tang_offset="0"
       normal_offset="0"
       spacing="0"
       scale_y_rel="false"
       prop_scale="0.3"
       copytype="single_stretched"
       pattern="M 0,5 C 0,2.24 2.24,0 5,0 7.76,0 10,2.24 10,5 10,7.76 7.76,10 5,10 2.24,10 0,7.76 0,5 Z"
       lpeversion="1"
       is_visible="true"
       id="path-effect845"
       effect="skeletal" />
    <inkscape:path-effect
       fuse_tolerance="0"
       hide_knot="false"
       vertical_pattern="false"
       prop_units="false"
       tang_offset="0"
       normal_offset="0"
       spacing="0"
       scale_y_rel="false"
       prop_scale="0.2"
       copytype="single_stretched"
       pattern="M 0,5 C 0,2.24 2.24,0 5,0 7.76,0 10,2.24 10,5 10,7.76 7.76,10 5,10 2.24,10 0,7.76 0,5 Z"
       lpeversion="1"
       is_visible="true"
       id="path-effect841"
       effect="skeletal" />
  </defs>
  <sodipodi:namedview
     inkscape:snap-bbox="false"
     inkscape:snap-global="false"
     inkscape:snap-nodes="true"
     inkscape:object-paths="false"
     id="base"
     pagecolor="#ffffff"
     bordercolor="#666666"
     borderopacity="1.0"
     inkscape:pageopacity="0.0"
     inkscape:pageshadow="2"
     inkscape:zoom="1.8101934"
     inkscape:cx="378.88049"
     inkscape:cy="561.48418"
     inkscape:document-units="mm"
     inkscape:current-layer="layer1"
     inkscape:document-rotation="0"
     showgrid="false"
     showborder="false"
     inkscape:window-width="1366"
     inkscape:window-height="705"
     inkscape:window-x="-8"
     inkscape:window-y="-8"
     inkscape:window-maximized="1" />
  <metadata
     id="metadata5">
    <rdf:RDF>
      <cc:Work
         rdf:about="">
        <dc:format>image/svg+xml</dc:format>
        <dc:type
           rdf:resource="http://purl.org/dc/dcmitype/StillImage" />
        <dc:title />
      </cc:Work>
    </rdf:RDF>
  </metadata>
  <g
     style="display:inline"
     inkscape:label="Layer 1"
     inkscape:groupmode="layer"
     id="layer1">
    <path
       sodipodi:nodetypes="cc"
       inkscape:original-d="m 69.358631,169.52232 c 32.126189,0.47983 48.931629,-5.60163 58.208329,-11.90625"
       inkscape:path-effect="#path-effect841"
       id="path839"
       d="m 69.358631,169.52232 c 0.0082,-0.55194 13.634566,-0.16155 29.882949,-2.85599 2.642,-0.43812 5.15495,-0.9365 7.56447,-1.49256 0,0 0,0 0,0 6.49259,-1.50261 11.1864,-3.18963 15.01952,-4.90933 3.58334,-1.60764 5.61137,-2.83968 5.74139,-2.64837 0.13002,0.19131 -1.67866,1.7907 -5.19205,3.74337 -3.69123,2.0515 -8.59403,4.07538 -15.11825,5.69351 0,0 0,0 0,0 -2.44304,0.60753 -5.00363,1.13844 -7.688304,1.58373 -16.525682,2.74102 -30.217969,1.43758 -30.209725,0.88564 z"
       style="fill:#008080;stroke:none;stroke-width:0.264583px;stroke-linecap:butt;stroke-linejoin:miter;stroke-opacity:1" />
    <path
       sodipodi:nodetypes="cccc"
       inkscape:original-d="m 69.358631,169.52232 c 2.314782,1.01769 3.380358,2.9253 3.937032,5.19543 25.649292,-0.004 33.622627,-0.23861 38.081787,-0.51885 1.59883,-7.90343 4.371,-7.89876 6.62711,-9.9135"
       inkscape:path-effect="#path-effect845"
       id="path843"
       d="m 69.358631,169.52232 c 0.148602,-0.338 3.511707,0.45742 4.407448,4.59563 6.326028,-0.23882 11.87447,-0.20546 21.291256,-0.29436 6.111015,-0.0577 10.818775,-0.16429 15.675865,-0.36373 0.44925,-3.09657 1.44313,-5.40651 3.12532,-6.98184 0,0 0,0 0,0 2.42555,-2.16215 3.94801,-2.41438 4.14604,-2.19262 0.19804,0.22176 -1.47413,1.32827 -2.97403,3.30436 0,0 0,0 0,0 -1.43386,1.71994 -2.11198,3.80366 -3.00883,7.34818 -4.82677,0.40491 -10.35043,0.64396 -16.766065,0.71034 -8.542278,0.0884 -17.808397,-0.15518 -22.430389,-0.33073 -1.118274,-4.07499 -3.615217,-5.45723 -3.466615,-5.79523 z"
       style="opacity:1;fill:#008080;stroke:none;stroke-width:0.265;stroke-linecap:butt;stroke-linejoin:miter;stroke-miterlimit:4;stroke-dasharray:none;stroke-opacity:1" />
    <path
       sodipodi:nodetypes="ccc"
       inkscape:original-d="m 106.17174,159.56055 c 2.83887,-0.94382 6.9796,0.3973 11.35625,2.15251 -6.13873,-5.57978 -10.56771,-15.84296 -15.2021,-25.54347"
       inkscape:path-effect="#path-effect849"
       id="path847"
       d="m 106.17174,159.56055 c -0.0993,-0.29866 1.81096,-1.20077 5.24634,-0.57854 1.85889,0.49628 3.71839,1.36561 5.97467,2.64634 0,0 0,0 0,0 -2.24938,-1.815 -4.28493,-4.01564 -6.22615,-6.675 -0.98056,-1.34332 -1.86369,-2.70245 -2.65646,-3.99927 0,0 0,0 0,0 -4.34598,-8.15072 -6.6096,-14.58128 -6.18425,-14.78449 0.42535,-0.20322 3.43879,5.9551 7.8896,13.84953 0,0 0,0 0,0 0.70143,1.42763 1.4654,2.95961 2.27956,4.4424 1.6263,2.96191 3.26137,5.37274 5.16818,7.33625 0,0 0,0 0,0 -2.79591,-0.72135 -4.44887,-1.14458 -6.53491,-1.53044 -3.02525,-0.82584 -4.877,-0.4674 -4.95658,-0.70678 z"
       style="fill:#008080;stroke:none;stroke-width:0.264583px;stroke-linecap:butt;stroke-linejoin:miter;stroke-opacity:1" />
    <path
       sodipodi:nodetypes="ccc"
       inkscape:original-d="m 96.120838,161.38311 c 4.991832,-0.52775 8.278522,1.0704 11.768652,2.41491 -5.35479,-8.23557 -7.62152,-16.46723 -9.111802,-24.69792"
       inkscape:path-effect="#path-effect853"
       id="path851"
       d="m 96.120836,161.3831 c -0.03597,-0.34028 1.191602,-0.88441 3.315238,-0.72133 2.304366,0.17696 4.839706,1.07976 8.073016,2.82801 0,0 0,0 0,0 -1.35229,-1.85225 -2.67044,-3.89574 -3.8845,-6.14216 -5.102597,-9.44148 -5.798064,-18.07531 -4.846918,-18.24753 0.929075,-0.16822 2.457858,8.79022 6.437918,18.63944 0.95395,2.3607 1.96748,4.46675 3.0543,6.36673 0,0 0,0 0,0 -4.29407,-1.09446 -5.93441,-1.52292 -8.724505,-1.94179 -2.117358,-0.31788 -3.386702,-0.4234 -3.424549,-0.78137 z"
       style="fill:#008080;stroke:none;stroke-width:0.143558px;stroke-linecap:butt;stroke-linejoin:miter;stroke-opacity:1" />
    <path
       sodipodi:nodetypes="cccc"
       inkscape:original-d="m 97.008095,140.95675 c -3.778597,-1.61063 -7.558227,-2.40356 -11.333879,-6.34469 l -3.730366,29.80073 c 5.768359,-1.60514 10.893348,-0.65055 15.957094,0.5477"
       inkscape:path-effect="#path-effect857"
       id="path855"
       d="m 97.008095,140.95675 c -0.125381,0.29415 -1.450407,0.12565 -3.483739,-0.59408 -1.842546,-0.65221 -5.100217,-2.04328 -7.628829,-5.08214 -0.483466,4.41272 -1.110984,10.05954 -1.761788,15.64446 -0.534709,4.58864 -1.050029,8.83745 -1.55345,12.75028 4.544293,-1.52835 8.71489,-1.05104 11.250536,-0.47713 2.672654,0.60492 4.158323,1.38963 4.070125,1.76235 -0.0882,0.37273 -1.786728,0.27523 -4.759535,-0.003 -2.689331,-0.25207 -7.502135,-0.75661 -11.834004,0.19322 0.510725,-4.1888 1.118886,-8.91527 1.799734,-14.03726 0.834876,-6.28074 1.690219,-12.48598 2.34576,-17.16946 2.452104,2.19059 6.615414,3.95293 8.372922,4.81963 2.21947,1.09451 3.325401,1.85774 3.182268,2.19353 z"
       style="fill:#008080;stroke:none;stroke-width:0.261115px;stroke-linecap:butt;stroke-linejoin:miter;stroke-opacity:1" />
    <path
       sodipodi:nodetypes="cccc"
       id="path867"
       d="m 81.310463,163.67182 c -0.04866,0.62234 -3.580737,0.75968 -9.483562,-0.14248 1.145225,-3.99259 2.495704,-9.30725 3.407063,-15.25842 0.877741,-5.73165 1.134187,-10.65445 1.029789,-14.78696 5.725508,2.44016 9.071351,4.202 8.820565,4.802 -0.250786,0.6 -3.775419,-0.38147 -8.006939,-3.50462 0.376072,4.02184 0.417275,8.60704 -0.25939,13.7384 -0.707962,5.36869 -2.040564,10.09677 -3.394786,13.93626 4.697928,-0.0732 7.935924,0.59348 7.88726,1.21582 z"
       style="fill:#008080;stroke:none;stroke-width:0.264583px;stroke-linecap:butt;stroke-linejoin:miter;stroke-opacity:1"
       inkscape:original-d="m 81.310463,163.67182 -8.685411,-0.67915 c 2.965438,-9.29449 4.636621,-18.84954 4.045514,-28.86002 3.41169,1.90622 6.419917,3.31993 8.41375,4.15331"
       inkscape:path-effect="#path-effect869" />
    <path
       id="path871"
       d="m 100.45247,138.17175 c -0.55199,0.003 -1.024809,-4.03501 -1.055401,-9.01429 -0.03059,-4.97927 0.392571,-9.02318 0.944561,-9.02657 0.55199,-0.003 1.02481,4.03501 1.0554,9.01429 0.0306,4.97927 -0.39257,9.02318 -0.94456,9.02657 z"
       style="fill:#008080;stroke:none;stroke-width:0.264583px;stroke-linecap:butt;stroke-linejoin:miter;stroke-opacity:1"
       inkscape:original-d="M 100.45247,138.17175 100.34163,120.1309"
       inkscape:path-effect="#path-effect873" />
    <path
       id="path875"
       d="m 89.364001,135.61867 c -0.275759,0.0115 -0.644846,-3.45165 -0.823856,-7.73033 -0.17901,-4.27868 -0.100489,-7.7606 0.17527,-7.77214 0.275758,-0.0115 0.644846,3.45165 0.823856,7.73034 0.17901,4.27868 0.100489,7.76059 -0.17527,7.77213 z"
       style="fill:#008080;stroke:none;stroke-width:0.264583px;stroke-linecap:butt;stroke-linejoin:miter;stroke-opacity:1"
       inkscape:original-d="M 89.364001,135.61867 88.715415,120.11621"
       inkscape:path-effect="#path-effect877" />
    <path
       id="path879"
       d="m 80.412335,134.13738 c -0.275848,0.009 -0.557399,-1.71966 -0.628461,-3.85898 -0.07106,-2.13932 0.09514,-3.88301 0.370987,-3.89217 0.275848,-0.009 0.557398,1.71965 0.628461,3.85897 0.07106,2.13932 -0.09514,3.88302 -0.370987,3.89218 z"
       style="fill:#008080;stroke:none;stroke-width:0.264583px;stroke-linecap:butt;stroke-linejoin:miter;stroke-opacity:1"
       inkscape:original-d="m 80.412335,134.13738 -0.257474,-7.75115"
       inkscape:path-effect="#path-effect881" />
  </g>
</svg>
