<?xml version="1.0" encoding="UTF-8" standalone="no"?>
<!-- Created with Inkscape (http://www.inkscape.org/) -->

<svg
   width="166.27055mm"
   height="157.24931mm"
   viewBox="0 0 166.27055 157.24931"
   version="1.1"
   id="svg5"
   inkscape:version="1.1.1 (3bf5ae0d25, 2021-09-20)"
   sodipodi:docname="logoBank.svg"
   xmlns:inkscape="http://www.inkscape.org/namespaces/inkscape"
   xmlns:sodipodi="http://sodipodi.sourceforge.net/DTD/sodipodi-0.dtd"
   xmlns="http://www.w3.org/2000/svg"
   xmlns:svg="http://www.w3.org/2000/svg">
  <sodipodi:namedview
     id="namedview7"
     pagecolor="#ffffff"
     bordercolor="#666666"
     borderopacity="1.0"
     inkscape:pageshadow="2"
     inkscape:pageopacity="0.0"
     inkscape:pagecheckerboard="0"
     inkscape:document-units="mm"
     showgrid="false"
     inkscape:snap-smooth-nodes="true"
     inkscape:snap-intersection-paths="true"
     inkscape:snap-midpoints="false"
     inkscape:object-paths="true"
     inkscape:zoom="1.0230034"
     inkscape:cx="368.03397"
     inkscape:cy="338.21979"
     inkscape:window-width="1482"
     inkscape:window-height="1030"
     inkscape:window-x="192"
     inkscape:window-y="0"
     inkscape:window-maximized="0"
     inkscape:current-layer="layer1" />
  <defs
     id="defs2" />
  <g
     inkscape:label="Layer 1"
     inkscape:groupmode="layer"
     id="layer1"
     transform="translate(-8.5568786,-20.783551)">
    <path
       id="path19154"
       style="fill:#6758ea;fill-opacity:1;stroke-width:0.2503"
       d="M 91.69216,20.783551 A 83.135398,78.624694 0 0 0 8.5568786,99.408206 83.135398,78.624694 0 0 0 91.69216,178.03287 83.135398,78.624694 0 0 0 174.82743,99.408206 83.135398,78.624694 0 0 0 91.69216,20.783551 Z M 73.968869,51.973896 h 10.16487 5.059968 v 15.7117 h -5.059968 -5.750728 -5.467073 c -3.195081,0 -5.617716,0.81966 -7.267948,2.45876 -1.650232,1.59914 -2.475297,3.93778 -2.475297,7.01611 0,3.11832 0.825065,5.47693 2.475297,7.07606 1.650232,1.59913 4.072867,2.39882 7.267948,2.39882 h 5.467073 5.750728 5.059968 v 15.711704 h -5.059968 -5.750728 -6.151932 c -4.107979,0 -7.180352,0.97938 -9.216779,2.93832 -2.036426,1.91896 -3.054409,4.81718 -3.054409,8.69508 0,3.95785 1.035501,6.91649 3.107056,8.87542 2.036426,1.95895 5.09128,2.93833 9.164132,2.93833 h 6.151932 5.750728 5.059968 v 15.71118 H 84.133739 70.756521 c -10.463082,0 -18.257887,-2.1185 -23.38415,-6.3562 -5.126193,-4.2377 -7.689575,-10.67461 -7.689575,-19.30993 0,-5.63694 1.193766,-10.3941 3.581327,-14.272 2.387564,-3.877904 5.758492,-6.536524 10.112225,-7.975744 -3.405776,-1.4792 -6.004194,-3.73798 -7.794867,-6.77633 -1.790672,-3.07833 -2.685882,-6.7962 -2.685882,-11.15384 0,-8.27552 2.457675,-14.2921 7.373242,-18.05006 4.88043,-3.75796 12.780497,-5.63738 23.700028,-5.63738 z m 24.537841,0 h 5.90367 10.16487 c 10.91953,0 18.81959,1.87942 23.70003,5.63738 4.91556,3.75796 7.37324,9.77454 7.37324,18.05006 0,4.35764 -0.89521,8.07551 -2.68588,11.15384 -1.79067,3.03835 -4.38911,5.29713 -7.79487,6.77633 4.35374,1.43922 7.72422,4.09784 10.11177,7.975744 2.38757,3.8779 3.58133,8.63506 3.58133,14.272 0,8.63532 -2.56293,15.07223 -7.68912,19.30993 -5.12626,4.2377 -12.92107,6.3562 -23.38415,6.3562 H 104.41038 98.50671 V 125.7942 h 5.90367 5.75073 6.15193 c 4.07285,0 7.12771,-0.97938 9.16413,-2.93833 2.07155,-1.95893 3.10706,-4.91757 3.10706,-8.87542 0,-3.8779 -1.01798,-6.77612 -3.05441,-8.69508 -2.03642,-1.95894 -5.1088,-2.93832 -9.21678,-2.93832 h -6.15193 -5.75073 -5.90367 V 86.635346 h 5.90367 5.75073 5.46707 c 3.19509,0 5.61772,-0.79969 7.26795,-2.39882 1.65024,-1.59913 2.4753,-3.95774 2.4753,-7.07606 0,-3.07833 -0.82506,-5.41697 -2.4753,-7.01611 -1.65023,-1.6391 -4.07286,-2.45876 -7.26795,-2.45876 h -5.46707 -5.75073 -5.90367 z" />
  </g>
</svg>
