<?xml version="1.0" encoding="UTF-8" standalone="no"?>
<!-- Created with Inkscape (http://www.inkscape.org/) -->

<svg
   width="174.10345mm"
   height="260.42365mm"
   viewBox="0 0 174.10345 260.42365"
   version="1.1"
   id="svg2514"
   inkscape:version="1.1.1 (3bf5ae0d25, 2021-09-20)"
   sodipodi:docname="OTP.svg"
   xmlns:inkscape="http://www.inkscape.org/namespaces/inkscape"
   xmlns:sodipodi="http://sodipodi.sourceforge.net/DTD/sodipodi-0.dtd"
   xmlns="http://www.w3.org/2000/svg"
   xmlns:svg="http://www.w3.org/2000/svg">
  <sodipodi:namedview
     id="namedview2516"
     pagecolor="#ffffff"
     bordercolor="#666666"
     borderopacity="1.0"
     inkscape:pageshadow="2"
     inkscape:pageopacity="0.0"
     inkscape:pagecheckerboard="0"
     inkscape:document-units="mm"
     showgrid="false"
     inkscape:object-paths="true"
     inkscape:snap-intersection-paths="true"
     inkscape:snap-smooth-nodes="true"
     inkscape:snap-midpoints="true"
     inkscape:snap-object-midpoints="true"
     inkscape:snap-center="true"
     inkscape:snap-text-baseline="true"
     inkscape:snap-nodes="true"
     inkscape:snap-others="true"
     inkscape:zoom="1.4467452"
     inkscape:cx="200.79555"
     inkscape:cy="603.76906"
     inkscape:window-width="1920"
     inkscape:window-height="1001"
     inkscape:window-x="-9"
     inkscape:window-y="-9"
     inkscape:window-maximized="1"
     inkscape:current-layer="layer1" />
  <defs
     id="defs2511">
    <rect
       x="340.17484"
       y="667.64197"
       width="199.41283"
       height="94.818848"
       id="rect11481" />
  </defs>
  <g
     inkscape:label="Layer 1"
     inkscape:groupmode="layer"
     id="layer1"
     transform="translate(-19.385469,-25.969212)">
    <rect
       style="opacity:1;fill:#18bddf;fill-opacity:1;stroke:none;stroke-width:2.065;stroke-linejoin:round;stroke-miterlimit:4;stroke-dasharray:none;stroke-opacity:1;paint-order:stroke fill markers"
       id="rect18305"
       width="174.10345"
       height="260.42365"
       x="19.385469"
       y="25.969212"
       ry="7.3908176" />
    <path
       id="rect8781"
       style="opacity:0.583062;fill:#6758ea;fill-opacity:1;stroke:none;stroke-width:1.9744;stroke-linejoin:round;stroke-miterlimit:4;stroke-dasharray:none;stroke-opacity:1;paint-order:stroke fill markers"
       d="m 48.979221,88.623012 c -0.764472,0 -1.380061,0.78119 -1.380061,1.751317 v 33.544721 c 0,0.97013 0.615589,1.75131 1.380061,1.75131 h 1.262376 c 0.764473,0 1.380061,-0.78118 1.380061,-1.75131 V 90.374329 c 0,-0.970127 -0.615588,-1.751317 -1.380061,-1.751317 z m 0.631189,0.531752 c 0.692776,0 1.250566,0.758904 1.250566,1.701188 v 32.581478 c 0,0.94228 -0.55779,1.70118 -1.250566,1.70118 -0.692778,0 -1.250566,-0.7589 -1.250566,-1.70118 V 90.855952 c 0,-0.942284 0.557788,-1.701188 1.250566,-1.701188 z" />
    <path
       id="path9089"
       style="opacity:0.583062;fill:#6758ea;fill-opacity:1;stroke:none;stroke-width:5.63822;stroke-linejoin:round;stroke-miterlimit:4;stroke-dasharray:none;stroke-opacity:1;paint-order:stroke fill markers"
       d="m 228.71094,163.90625 c -22.82866,0 -41.20703,18.37838 -41.20703,41.20703 v 129.83984 h 2.38476 c 1.78834,0 3.28346,1.20414 4.22266,2.93555 l 0.125,0.0176 -0.008,0.20313 c 0.50714,1.02115 0.87695,2.16193 0.87695,3.46289 v 126.7832 c 0,1.82893 -0.58048,3.47805 -1.51953,4.67383 v 0.004 h -0.002 c -0.94335,1.19957 -2.24851,1.94141 -3.69531,1.94141 h -2.38476 v 488.05273 c 0,22.82866 18.37837,41.20704 41.20703,41.20704 h 359.58398 c 22.82866,0 41.20703,-18.37838 41.20703,-41.20704 V 465.37695 h 2.38477 c 0.72165,0 1.40924,-0.1065 2.0332,-0.29687 6e-4,-1.8e-4 0.001,1.8e-4 0.002,0 0.62443,-0.19072 1.18483,-0.46709 1.65624,-0.8086 0.47142,-0.3415 0.85392,-0.7488 1.11719,-1.20117 0.26327,-0.45236 0.40821,-0.94936 0.40821,-1.47265 V 389.2207 c 0,-0.52328 -0.14494,-1.02029 -0.40821,-1.47265 -0.26327,-0.45237 -0.64577,-0.85966 -1.11719,-1.20117 -0.47141,-0.34152 -1.03181,-0.61788 -1.65624,-0.8086 -6e-4,-1.8e-4 -10e-4,1.8e-4 -0.002,0 -0.62396,-0.19038 -1.31155,-0.29687 -2.0332,-0.29687 h -2.38477 V 205.11328 c 0,-22.82865 -18.37837,-41.20703 -41.20703,-41.20703 z m 22.88867,25.48437 h 40.78125 a 11.750005,11.750005 0 0 1 11.75,11.75 c 0,7.60856 6.12582,13.73438 13.73437,13.73438 h 181.27539 c 7.60856,0 13.73438,-6.12582 13.73438,-13.73438 a 11.749989,11.749989 0 0 1 11.75,-11.75 h 40.78125 c 21.444,0 38.70898,17.26304 38.70898,38.70704 v 711.94336 c 0,21.44399 -17.26498,38.70703 -38.70898,38.70703 H 251.59961 c -21.444,0 -38.70703,-17.26304 -38.70703,-38.70703 V 228.09766 c 0,-21.444 17.26303,-38.70703 38.70703,-38.70704 z m 123.38086,0 h 68.42578 c 3.7908,0 6.8418,3.051 6.8418,6.8418 0,3.7908 -3.051,6.84375 -6.8418,6.84375 h -68.42578 c -3.7908,0 -6.8418,-3.05295 -6.8418,-6.84375 0,-3.7908 3.051,-6.84179 6.8418,-6.8418 z m 98.41601,0 a 6.8324063,6.8324063 0 0 1 6.83204,6.83204 6.8324063,6.8324063 0 0 1 -6.83204,6.83203 6.8324063,6.8324063 0 0 1 -6.83203,-6.83203 6.8324063,6.8324063 0 0 1 6.83203,-6.83204 z m 156.10547,197.19922 c 0.005,0 0.0104,-10e-6 0.0156,0 0.64302,0.002 1.25525,0.10231 1.8125,0.28321 0.01,0.003 0.0195,0.007 0.0293,0.01 0.55955,0.18521 1.06507,0.45046 1.48828,0.7793 0.42717,0.33192 0.77121,0.72648 1.00976,1.16601 0.23856,0.43954 0.3711,0.92337 0.3711,1.43165 v 70.29882 c 0,0.50828 -0.13254,0.99229 -0.3711,1.43164 -0.23855,0.43936 -0.58259,0.83435 -1.00976,1.16602 -0.42718,0.33167 -0.9361,0.59994 -1.50196,0.78516 -0.56585,0.18522 -1.18915,0.28711 -1.84375,0.28711 -2.61834,0 -4.72656,-1.63684 -4.72656,-3.66993 v -70.29882 c 0,-2.03309 2.10822,-3.66993 4.72656,-3.66993 z"
       transform="scale(0.26458333)" />
    <path
       id="rect9791"
       style="opacity:0.540717;fill:#6758ea;fill-opacity:1;stroke:none;stroke-width:7.80472;stroke-linejoin:round;stroke-miterlimit:4;stroke-dasharray:none;stroke-opacity:1;paint-order:stroke fill markers"
       d="M 209.58984 431.17773 C 194.11452 431.17773 181.65625 443.636 181.65625 459.11133 L 181.65625 718.00391 C 181.65625 733.47923 194.11452 745.9375 209.58984 745.9375 L 468.48242 745.9375 C 483.95775 745.9375 496.41602 733.47923 496.41602 718.00391 L 496.41602 459.11133 C 496.41602 443.636 483.95775 431.17773 468.48242 431.17773 L 209.58984 431.17773 z M 232.82422 574.50586 L 235.70117 574.50586 L 235.70117 584.01758 L 244.17773 578.89648 L 245.64062 581.39258 L 236.58398 586.28711 L 245.64062 591.20703 L 244.17773 593.67969 L 235.70117 588.55859 L 235.70117 598.06836 L 232.82422 598.06836 L 232.82422 588.55859 L 224.34766 593.67969 L 222.88477 591.20703 L 231.94141 586.28711 L 222.88477 581.39258 L 224.34766 578.89648 L 232.82422 584.01758 L 232.82422 574.50586 z M 258.6582 574.50586 L 261.53516 574.50586 L 261.53516 584.01758 L 270.01172 578.89648 L 271.47461 581.39258 L 262.41797 586.28711 L 271.47461 591.20703 L 270.01172 593.67969 L 261.53516 588.55859 L 261.53516 598.06836 L 258.6582 598.06836 L 258.6582 588.55859 L 250.18164 593.67969 L 248.71875 591.20703 L 257.77539 586.28711 L 248.71875 581.39258 L 250.18164 578.89648 L 258.6582 584.01758 L 258.6582 574.50586 z M 284.49219 574.50586 L 287.36914 574.50586 L 287.36914 584.01758 L 295.8457 578.89648 L 297.30859 581.39258 L 288.25195 586.28711 L 297.30859 591.20703 L 295.8457 593.67969 L 287.36914 588.55859 L 287.36914 598.06836 L 284.49219 598.06836 L 284.49219 588.55859 L 276.01562 593.67969 L 274.55273 591.20703 L 283.60938 586.28711 L 274.55273 581.39258 L 276.01562 578.89648 L 284.49219 584.01758 L 284.49219 574.50586 z M 310.32617 574.50586 L 313.20117 574.50586 L 313.20117 584.01758 L 321.67969 578.89648 L 323.14258 581.39258 L 314.08594 586.28711 L 323.14258 591.20703 L 321.67969 593.67969 L 313.20117 588.55859 L 313.20117 598.06836 L 310.32617 598.06836 L 310.32617 588.55859 L 301.84961 593.67969 L 300.38672 591.20703 L 309.44336 586.28711 L 300.38672 581.39258 L 301.84961 578.89648 L 310.32617 584.01758 L 310.32617 574.50586 z M 336.16016 574.50586 L 339.03516 574.50586 L 339.03516 584.01758 L 347.51172 578.89648 L 348.97656 581.39258 L 339.91797 586.28711 L 348.97656 591.20703 L 347.51172 593.67969 L 339.03516 588.55859 L 339.03516 598.06836 L 336.16016 598.06836 L 336.16016 588.55859 L 327.68359 593.67969 L 326.2207 591.20703 L 335.27734 586.28711 L 326.2207 581.39258 L 327.68359 578.89648 L 336.16016 584.01758 L 336.16016 574.50586 z M 361.99414 574.50586 L 364.86914 574.50586 L 364.86914 584.01758 L 373.3457 578.89648 L 374.80859 581.39258 L 365.75195 586.28711 L 374.80859 591.20703 L 373.3457 593.67969 L 364.86914 588.55859 L 364.86914 598.06836 L 361.99414 598.06836 L 361.99414 588.55859 L 353.51758 593.67969 L 352.05273 591.20703 L 361.11133 586.28711 L 352.05273 581.39258 L 353.51758 578.89648 L 361.99414 584.01758 L 361.99414 574.50586 z M 387.82812 574.50586 L 390.70312 574.50586 L 390.70312 584.01758 L 399.17969 578.89648 L 400.64258 581.39258 L 391.58594 586.28711 L 400.64258 591.20703 L 399.17969 593.67969 L 390.70312 588.55859 L 390.70312 598.06836 L 387.82812 598.06836 L 387.82812 588.55859 L 379.34961 593.67969 L 377.88672 591.20703 L 386.94336 586.28711 L 377.88672 581.39258 L 379.34961 578.89648 L 387.82812 584.01758 L 387.82812 574.50586 z M 413.66016 574.50586 L 416.53711 574.50586 L 416.53711 584.01758 L 425.01367 578.89648 L 426.47656 581.39258 L 417.41992 586.28711 L 426.47656 591.20703 L 425.01367 593.67969 L 416.53711 588.55859 L 416.53711 598.06836 L 413.66016 598.06836 L 413.66016 588.55859 L 405.18359 593.67969 L 403.7207 591.20703 L 412.77734 586.28711 L 403.7207 581.39258 L 405.18359 578.89648 L 413.66016 584.01758 L 413.66016 574.50586 z M 439.49414 574.50586 L 442.37109 574.50586 L 442.37109 584.01758 L 450.84766 578.89648 L 452.31055 581.39258 L 443.25391 586.28711 L 452.31055 591.20703 L 450.84766 593.67969 L 442.37109 588.55859 L 442.37109 598.06836 L 439.49414 598.06836 L 439.49414 588.55859 L 431.01758 593.67969 L 429.55469 591.20703 L 438.61133 586.28711 L 429.55469 581.39258 L 431.01758 578.89648 L 439.49414 584.01758 L 439.49414 574.50586 z "
       transform="matrix(0.26458333,0,0,0.26458333,19.385469,25.969212)" />
    <path
       id="rect16464"
       style="opacity:1;fill:#fefefe;fill-opacity:1;stroke:none;stroke-width:7.80472;stroke-linejoin:round;stroke-miterlimit:4;stroke-dasharray:none;stroke-opacity:1;paint-order:stroke fill markers"
       d="m 412.30469,331.17969 a 109.69089,109.69089 0 0 0 -109.69141,109.6914 109.69089,109.69089 0 0 0 0.004,0.0547 v 88.4043 h 22.05469 V 440.8711 a 87.631259,87.631259 0 0 1 87.63281,-87.63086 87.631259,87.631259 0 0 1 87.63086,87.63086 v 88.45899 h 22.05468 V 441.0293 a 109.69089,109.69089 0 0 0 0.004,-0.15821 109.69089,109.69089 0 0 0 -109.68945,-109.6914 z"
       transform="scale(0.26458333)" />
  </g>
</svg>
