<?xml version="1.0" encoding="UTF-8" standalone="no"?>
<!-- Created with Inkscape (http://www.inkscape.org/) -->

<svg
   width="174.10345mm"
   height="260.42365mm"
   viewBox="0 0 174.10345 260.42365"
   version="1.1"
   id="svg2514"
   inkscape:version="1.1.1 (3bf5ae0d25, 2021-09-20)"
   sodipodi:docname="OTPreceived.svg"
   xmlns:inkscape="http://www.inkscape.org/namespaces/inkscape"
   xmlns:sodipodi="http://sodipodi.sourceforge.net/DTD/sodipodi-0.dtd"
   xmlns="http://www.w3.org/2000/svg"
   xmlns:svg="http://www.w3.org/2000/svg">
  <sodipodi:namedview
     id="namedview2516"
     pagecolor="#ffffff"
     bordercolor="#666666"
     borderopacity="1.0"
     inkscape:pageshadow="2"
     inkscape:pageopacity="0.0"
     inkscape:pagecheckerboard="0"
     inkscape:document-units="mm"
     showgrid="false"
     inkscape:object-paths="true"
     inkscape:snap-intersection-paths="true"
     inkscape:snap-smooth-nodes="true"
     inkscape:snap-midpoints="true"
     inkscape:snap-object-midpoints="true"
     inkscape:snap-center="true"
     inkscape:snap-text-baseline="true"
     inkscape:snap-nodes="true"
     inkscape:snap-others="true"
     inkscape:zoom="0.70710678"
     inkscape:cx="323.1478"
     inkscape:cy="467.39758"
     inkscape:window-width="1920"
     inkscape:window-height="1001"
     inkscape:window-x="-9"
     inkscape:window-y="-9"
     inkscape:window-maximized="1"
     inkscape:current-layer="layer1"
     inkscape:snap-bbox="true"
     inkscape:bbox-nodes="true"
     inkscape:snap-bbox-edge-midpoints="true"
     inkscape:snap-bbox-midpoints="true"
     inkscape:bbox-paths="true" />
  <defs
     id="defs2511">
    <rect
       x="249.52562"
       y="486.60952"
       width="180.40495"
       height="55.296536"
       id="rect31355" />
    <rect
       x="247.31102"
       y="431.08363"
       width="161.77855"
       height="67.937216"
       id="rect23789" />
    <rect
       x="340.17484"
       y="667.64197"
       width="199.41283"
       height="94.818848"
       id="rect11481" />
  </defs>
  <g
     inkscape:label="Layer 1"
     inkscape:groupmode="layer"
     id="layer1"
     transform="translate(-19.385469,-25.969212)">
    <rect
       style="opacity:1;fill:#18bddf;fill-opacity:1;stroke:none;stroke-width:2.065;stroke-linejoin:round;stroke-miterlimit:4;stroke-dasharray:none;stroke-opacity:1;paint-order:stroke fill markers"
       id="rect18305"
       width="174.10345"
       height="260.42365"
       x="19.385469"
       y="25.969212"
       ry="7.3908176" />
    <path
       id="rect8781"
       style="opacity:0.583062;fill:#6758ea;fill-opacity:1;stroke:none;stroke-width:1.9744;stroke-linejoin:round;stroke-miterlimit:4;stroke-dasharray:none;stroke-opacity:1;paint-order:stroke fill markers"
       d="m 48.979221,88.623012 c -0.764472,0 -1.380061,0.78119 -1.380061,1.751317 v 33.544721 c 0,0.97013 0.615589,1.75131 1.380061,1.75131 h 1.262376 c 0.764473,0 1.380061,-0.78118 1.380061,-1.75131 V 90.374329 c 0,-0.970127 -0.615588,-1.751317 -1.380061,-1.751317 z m 0.631189,0.531752 c 0.692776,0 1.250566,0.758904 1.250566,1.701188 v 32.581478 c 0,0.94228 -0.55779,1.70118 -1.250566,1.70118 -0.692778,0 -1.250566,-0.7589 -1.250566,-1.70118 V 90.855952 c 0,-0.942284 0.557788,-1.701188 1.250566,-1.701188 z" />
    <path
       id="path9089"
       style="opacity:0.583062;fill:#6758ea;fill-opacity:1;stroke:none;stroke-width:5.63822;stroke-linejoin:round;stroke-miterlimit:4;stroke-dasharray:none;stroke-opacity:1;paint-order:stroke fill markers"
       d="m 228.71094,163.90625 c -22.82866,0 -41.20703,18.37838 -41.20703,41.20703 v 129.83984 h 2.38476 c 1.78834,0 3.28346,1.20414 4.22266,2.93555 l 0.125,0.0176 -0.008,0.20313 c 0.50714,1.02115 0.87695,2.16193 0.87695,3.46289 v 126.7832 c 0,1.82893 -0.58048,3.47805 -1.51953,4.67383 v 0.004 h -0.002 c -0.94335,1.19957 -2.24851,1.94141 -3.69531,1.94141 h -2.38476 v 488.05273 c 0,22.82866 18.37837,41.20704 41.20703,41.20704 h 359.58398 c 22.82866,0 41.20703,-18.37838 41.20703,-41.20704 V 465.37695 h 2.38477 c 0.72165,0 1.40924,-0.1065 2.0332,-0.29687 6e-4,-1.8e-4 0.001,1.8e-4 0.002,0 0.62443,-0.19072 1.18483,-0.46709 1.65624,-0.8086 0.47142,-0.3415 0.85392,-0.7488 1.11719,-1.20117 0.26327,-0.45236 0.40821,-0.94936 0.40821,-1.47265 V 389.2207 c 0,-0.52328 -0.14494,-1.02029 -0.40821,-1.47265 -0.26327,-0.45237 -0.64577,-0.85966 -1.11719,-1.20117 -0.47141,-0.34152 -1.03181,-0.61788 -1.65624,-0.8086 -6e-4,-1.8e-4 -10e-4,1.8e-4 -0.002,0 -0.62396,-0.19038 -1.31155,-0.29687 -2.0332,-0.29687 h -2.38477 V 205.11328 c 0,-22.82865 -18.37837,-41.20703 -41.20703,-41.20703 z m 22.88867,25.48437 h 40.78125 a 11.750005,11.750005 0 0 1 11.75,11.75 c 0,7.60856 6.12582,13.73438 13.73437,13.73438 h 181.27539 c 7.60856,0 13.73438,-6.12582 13.73438,-13.73438 a 11.749989,11.749989 0 0 1 11.75,-11.75 h 40.78125 c 21.444,0 38.70898,17.26304 38.70898,38.70704 v 711.94336 c 0,21.44399 -17.26498,38.70703 -38.70898,38.70703 H 251.59961 c -21.444,0 -38.70703,-17.26304 -38.70703,-38.70703 V 228.09766 c 0,-21.444 17.26303,-38.70703 38.70703,-38.70704 z m 123.38086,0 h 68.42578 c 3.7908,0 6.8418,3.051 6.8418,6.8418 0,3.7908 -3.051,6.84375 -6.8418,6.84375 h -68.42578 c -3.7908,0 -6.8418,-3.05295 -6.8418,-6.84375 0,-3.7908 3.051,-6.84179 6.8418,-6.8418 z m 98.41601,0 a 6.8324063,6.8324063 0 0 1 6.83204,6.83204 6.8324063,6.8324063 0 0 1 -6.83204,6.83203 6.8324063,6.8324063 0 0 1 -6.83203,-6.83203 6.8324063,6.8324063 0 0 1 6.83203,-6.83204 z m 156.10547,197.19922 c 0.005,0 0.0104,-10e-6 0.0156,0 0.64302,0.002 1.25525,0.10231 1.8125,0.28321 0.01,0.003 0.0195,0.007 0.0293,0.01 0.55955,0.18521 1.06507,0.45046 1.48828,0.7793 0.42717,0.33192 0.77121,0.72648 1.00976,1.16601 0.23856,0.43954 0.3711,0.92337 0.3711,1.43165 v 70.29882 c 0,0.50828 -0.13254,0.99229 -0.3711,1.43164 -0.23855,0.43936 -0.58259,0.83435 -1.00976,1.16602 -0.42718,0.33167 -0.9361,0.59994 -1.50196,0.78516 -0.56585,0.18522 -1.18915,0.28711 -1.84375,0.28711 -2.61834,0 -4.72656,-1.63684 -4.72656,-3.66993 v -70.29882 c 0,-2.03309 2.10822,-3.66993 4.72656,-3.66993 z"
       transform="scale(0.26458333)" />
    <g
       id="g40150"
       transform="translate(-1.4294214e-4,25.603367)">
      <path
         id="rect20804"
         style="opacity:1;fill:#ffffff;fill-opacity:1;stroke:none;stroke-width:5.84069;stroke-linejoin:round;stroke-miterlimit:4;stroke-dasharray:none;stroke-opacity:1;paint-order:stroke fill markers"
         d="m 245.68945,389.15039 c -10.41608,0 -18.80273,8.3847 -18.80273,18.80078 v 155.93555 c 0,10.41608 8.38665,18.80078 18.80273,18.80078 h 114.42969 c 23.15471,0 44.92774,22.46426 44.92774,44.92773 V 582.6875 h 27.33593 c 10.41609,0 18.80078,-8.3847 18.80078,-18.80078 V 407.95117 c 0,-10.41608 -8.38469,-18.80078 -18.80078,-18.80078 z m 12.72266,103.16211 h 2.22656 v 7.36328 l 6.5625,-3.96484 1.13281,1.93359 -7.01171,3.78906 7.01171,3.8086 -1.13281,1.91406 -6.5625,-3.96484 v 7.36328 h -2.22656 v -7.36328 l -6.5625,3.96484 -1.13281,-1.91406 7.01172,-3.8086 -7.01172,-3.78906 1.13281,-1.93359 6.5625,3.96484 z m 20,0 h 2.22656 v 7.36328 l 6.5625,-3.96484 1.13281,1.93359 -7.01171,3.78906 7.01171,3.8086 -1.13281,1.91406 -6.5625,-3.96484 v 7.36328 h -2.22656 v -7.36328 l -6.5625,3.96484 -1.13281,-1.91406 7.01172,-3.8086 -7.01172,-3.78906 1.13281,-1.93359 6.5625,3.96484 z m 20,0 h 2.22656 v 7.36328 l 6.5625,-3.96484 1.13281,1.93359 -7.01171,3.78906 7.01171,3.8086 -1.13281,1.91406 -6.5625,-3.96484 v 7.36328 h -2.22656 v -7.36328 l -6.5625,3.96484 -1.13281,-1.91406 7.01172,-3.8086 -7.01172,-3.78906 1.13281,-1.93359 6.5625,3.96484 z m 20,0 h 2.22656 v 7.36328 l 6.5625,-3.96484 1.13281,1.93359 -7.01171,3.78906 7.01171,3.8086 -1.13281,1.91406 -6.5625,-3.96484 v 7.36328 h -2.22656 v -7.36328 l -6.5625,3.96484 -1.13281,-1.91406 7.01172,-3.8086 -7.01172,-3.78906 1.13281,-1.93359 6.5625,3.96484 z m 20,0 h 2.22656 v 7.36328 l 6.5625,-3.96484 1.13281,1.93359 -7.01171,3.78906 7.01171,3.8086 -1.13281,1.91406 -6.5625,-3.96484 v 7.36328 h -2.22656 v -7.36328 l -6.5625,3.96484 -1.13281,-1.91406 7.01172,-3.8086 -7.01172,-3.78906 1.13281,-1.93359 6.5625,3.96484 z m 20,0 h 2.22656 v 7.36328 l 6.5625,-3.96484 1.13281,1.93359 -7.01171,3.78906 7.01171,3.8086 -1.13281,1.91406 -6.5625,-3.96484 v 7.36328 h -2.22656 v -7.36328 l -6.5625,3.96484 -1.13281,-1.91406 7.01172,-3.8086 -7.01172,-3.78906 1.13281,-1.93359 6.5625,3.96484 z m 20,0 h 2.22656 v 7.36328 l 6.5625,-3.96484 1.13281,1.93359 -7.01171,3.78906 7.01171,3.8086 -1.13281,1.91406 -6.5625,-3.96484 v 7.36328 h -2.22656 v -7.36328 l -6.5625,3.96484 -1.13281,-1.91406 7.01172,-3.8086 -7.01172,-3.78906 1.13281,-1.93359 6.5625,3.96484 z m 20,0 h 2.22656 v 7.36328 l 6.5625,-3.96484 1.13281,1.93359 -7.01171,3.78906 7.01171,3.8086 -1.13281,1.91406 -6.5625,-3.96484 v 7.36328 h -2.22656 v -7.36328 l -6.5625,3.96484 -1.13281,-1.91406 7.01172,-3.8086 -7.01172,-3.78906 1.13281,-1.93359 6.5625,3.96484 z m 20,0 h 2.22656 v 7.36328 l 6.5625,-3.96484 1.13281,1.93359 -7.01171,3.78906 7.01171,3.8086 -1.13281,1.91406 -6.5625,-3.96484 v 7.36328 h -2.22656 v -7.36328 l -6.5625,3.96484 -1.13281,-1.91406 7.01172,-3.8086 -7.01172,-3.78906 1.13281,-1.93359 6.5625,3.96484 z"
         transform="matrix(0.26458333,0,0,0.26458333,19.385469,25.969212)" />
      <text
         xml:space="preserve"
         transform="matrix(0.27473568,0,0,0.27473568,28.490407,20.217368)"
         id="text23787"
         style="font-style:normal;font-weight:normal;font-size:40px;line-height:1.25;font-family:sans-serif;white-space:pre;shape-inside:url(#rect23789);fill:#6758ea;fill-opacity:1;stroke:none"><tspan
           x="247.31055"
           y="466.47461"
           id="tspan40429">OTP</tspan></text>
    </g>
    <g
       id="g40159"
       transform="translate(1.1127565,17.960512)">
      <g
         id="g40153">
        <rect
           style="opacity:0.732899;fill:#6758ea;fill-opacity:1;stroke:none;stroke-width:2.065;stroke-linejoin:round;stroke-miterlimit:4;stroke-dasharray:none;stroke-opacity:1;paint-order:stroke fill markers"
           id="rect33572"
           width="57.750019"
           height="35.691475"
           x="78.09536"
           y="77.95462"
           ry="1.2243946" />
      </g>
      <path
         id="rect35617"
         style="opacity:0.732899;fill:#ffffff;fill-opacity:1;stroke:none;stroke-width:7.80472;stroke-linejoin:round;stroke-miterlimit:4;stroke-dasharray:none;stroke-opacity:1;paint-order:stroke fill markers"
         d="m 226.52344,196.48047 c -1.25531,0 -2.38867,0.49669 -3.22071,1.30273 l 107.72657,88.99414 107.72851,-88.99218 c -0.83221,-0.80718 -1.96635,-1.30469 -3.22265,-1.30469 z"
         transform="matrix(0.26458333,0,0,0.26458333,19.385469,25.969212)"
         sodipodi:nodetypes="scccss" />
      <path
         style="opacity:0.534202;fill:#000000;fill-opacity:0.677524;stroke:none;stroke-width:0.264583px;stroke-linecap:butt;stroke-linejoin:miter;stroke-opacity:1"
         d="M 106.9703,107.88795 135.47347,78.29987 106.9703,101.84571 78.467649,78.29935 Z"
         id="path35917"
         sodipodi:nodetypes="ccccc" />
    </g>
  </g>
</svg>
